<?xml version="1.0" encoding="utf-8"?>
<!-- Generator: Adobe Illustrator 21.0.2, SVG Export Plug-In . SVG Version: 6.00 Build 0)  -->
<svg version="1.1" xmlns="http://www.w3.org/2000/svg" xmlns:xlink="http://www.w3.org/1999/xlink" x="0px" y="0px"
	 viewBox="0 0 900 648" style="enable-background:new 0 0 900 648;" xml:space="preserve">
<style type="text/css">
	.st0{stroke:#000000;stroke-miterlimit:10;}
	.st1{fill:#FFFFFF;stroke:#FFFFFF;stroke-miterlimit:10;}
	.st2{fill:#ED1C24;stroke:#ED1C24;stroke-miterlimit:10;}
	.st3{fill:#27AAE1;stroke:#27AAE1;stroke-miterlimit:10;}
	.st4{fill:#603913;stroke:#603913;stroke-miterlimit:10;}
	.st5{fill:#EC008C;stroke:#EC008C;stroke-miterlimit:10;}
	.st6{fill:#39B54A;stroke:#39B54A;stroke-miterlimit:10;}
	.st7{fill:#FBB040;stroke:#FBB040;stroke-miterlimit:10;}
	.st8{fill:#262262;stroke:#262262;stroke-miterlimit:10;}
	.st9{fill:none;stroke:#FFFFFF;stroke-miterlimit:10;}
	.st10{fill:#FFFFFF;}
	.st11{fill:none;stroke:#000000;stroke-miterlimit:10;}
	.st12{fill:none;}
	.st13{font-family:'HoeflerText-Regular';}
	.st14{font-size:18px;}
	.st15{font-family:'OCRB';}
	.st16{font-size:11.0012px;}
	.st17{fill:none;stroke:#000000;stroke-width:0.936;stroke-miterlimit:10;}
	.st18{fill:none;stroke:#000000;stroke-width:2.808;stroke-miterlimit:10;}
	.st19{fill:none;stroke:#000000;stroke-width:1.872;stroke-miterlimit:10;}
	.st20{font-size:9px;}
</style>
<g id="Layer_3">
	<rect y="-1.4" class="st0" width="898.4" height="649.4"/>
</g>
<g id="Layer_7">
</g>
<g id="Layer_2">
	<g>
		<path class="st1" d="M595.3,501.4c0,0,0,5.5,7.6,9.8c0,0,17.1,3.7,12.8-17.6c-3.2-15.9-4-30.9-3-44.9c-5.7,0-11.5-0.4-17.2-0.4
			C593.8,466.5,594.1,484.9,595.3,501.4z"/>
		<path class="st1" d="M607,390.2c-8.6,17.1-13.1,37.4-15.1,57.9c5.7,0,11.5,0.4,17.2,0.4c1.4-19.1,6.1-36.4,12.7-51.7
			C616.7,394.6,611.8,392.6,607,390.2z"/>
		<path class="st1" d="M647.5,348.9c-1.7-2.3-3.9-4.5-5.7-6.8c-11.7,10.4-23.5,23-32.9,38c-1.7,2.8-3.4,5.6-4.9,8.6
			c4.8,2.4,9.7,4.4,14.8,6.6C626.7,377.2,637.1,361.6,647.5,348.9z"/>
		<path class="st1" d="M640,340.1c1.8,2.3,3.9,4.5,5.7,6.8c21.9-26.5,44.2-40.7,44.2-40.7S665.2,317.7,640,340.1z"/>
	</g>
	<g>
		<path class="st2" d="M765.6,509.2c0,0,4,3.8,12.3,1.3c0,0,14.4-9.9-4-21.4c-13.8-8.6-25.2-18.4-34.7-28.7
			c-3.9,4.1-8.2,8.1-12.1,12.2C739.2,486.3,752.8,498.7,765.6,509.2z"/>
		<path class="st2" d="M693,424.2c6.5,18,18.1,35.2,31.7,50.8c3.9-4.1,8.2-8.1,12.1-12.2c-12.9-14.1-22.2-29.4-28.8-44.8
			C702.8,420.1,698,422.4,693,424.2z"/>
		<path class="st2" d="M690.9,366.4c-2.9-0.3-5.9-0.2-8.8-0.6c-0.5,15.6,0.6,32.9,4.9,50.1c0.8,3.2,1.8,6.3,2.9,9.4
			c5-1.8,9.9-4.1,15-6.2C697,400.9,692.9,382.7,690.9,366.4z"/>
		<path class="st2" d="M679.3,365.7c2.9,0.3,5.9,0.2,8.8,0.6c-4.2-34.2,0.9-60.1,0.9-60.1S680.4,332,679.3,365.7z"/>
	</g>
	<g>
		<path class="st3" d="M885,399.4c0,0,5.5,0,9.8-7.6c0,0,3.5-17.1-17.7-12.7c-15.9,3.3-30.9,4.2-44.9,3.3c0,5.7-0.3,11.5-0.3,17.2
			C850,401.2,868.4,400.7,885,399.4z"/>
		<path class="st3" d="M773.7,388.5c17.2,8.5,37.5,12.8,58,14.6c0-5.7,0.3-11.5,0.3-17.2c-19.1-1.2-36.4-5.8-51.8-12.3
			C778,378.7,776,383.7,773.7,388.5z"/>
		<path class="st3" d="M732.1,348.3c-2.3,1.8-4.4,3.9-6.7,5.7c10.4,11.6,23.2,23.3,38.2,32.7c2.8,1.7,5.6,3.3,8.6,4.8
			c2.4-4.8,4.3-9.8,6.5-14.9C760.5,368.9,744.9,358.6,732.1,348.3z"/>
		<path class="st3" d="M723.3,355.8c2.3-1.8,4.4-4,6.7-5.7c-26.7-21.7-41-43.9-41-43.9S700.7,330.8,723.3,355.8z"/>
	</g>
	<g>
		<path class="st4" d="M894,232.9c0,0,3.9-3.9,1.4-12.3c0,0-9.7-14.6-21.5,3.7c-8.8,13.6-18.7,24.9-29.2,34.2c4.1,4,8,8.3,12,12.3
			C870.7,259,883.3,245.6,894,232.9z"/>
		<path class="st4" d="M808,304.3c18.1-6.2,35.5-17.6,51.2-30.9c-4.1-4-8-8.3-12-12.3c-14.3,12.7-29.8,21.8-45.2,28.2
			C804.1,294.4,806.3,299.3,808,304.3z"/>
		<path class="st4" d="M750.1,305.6c-0.4,2.9-0.3,5.9-0.7,8.8c15.6,0.7,32.9-0.1,50.1-4.2c3.2-0.8,6.3-1.7,9.5-2.8
			c-1.7-5-3.9-9.9-6-15.1C784.8,299.9,766.5,303.8,750.1,305.6z"/>
		<path class="st4" d="M749.3,317.2c0.4-2.9,0.3-5.9,0.7-8.8c-34.2,3.7-60.1-1.8-60.1-1.8S715.7,315.6,749.3,317.2z"/>
	</g>
	<g>
		<path class="st5" d="M772.8,106.2c0,0-0.3-5.5-8.1-9.4c0,0-17.3-2.6-11.7,18.3c4.2,15.7,5.8,30.6,5.6,44.7
			c5.7-0.3,11.5-0.3,17.2-0.6C776.4,141,775.1,122.7,772.8,106.2z"/>
		<path class="st5" d="M767.7,217.9c7.6-17.6,10.9-38.1,11.6-58.7c-5.7,0.3-11.5,0.3-17.2,0.6c-0.3,19.1-4,36.7-9.6,52.4
			C757.8,214.2,762.9,215.8,767.7,217.9z"/>
		<path class="st5" d="M729.7,261.5c1.9,2.2,4.2,4.2,6.1,6.4c11-11,22.1-24.4,30.6-39.9c1.6-2.9,3-5.8,4.3-8.9
			c-4.9-2.1-10-3.8-15.2-5.7C748.9,232.1,739.4,248.2,729.7,261.5z"/>
		<path class="st5" d="M737.8,269.9c-1.9-2.2-4.2-4.2-6.1-6.4c-20.3,27.8-41.7,43.2-41.7,43.2S713.9,293.8,737.8,269.9z"/>
	</g>
	<g>
		<path class="st6" d="M595.8,111.2c0,0-4.3-3.4-12.4-0.2c0,0-13.5,11.1,5.8,21c14.5,7.4,26.7,16.1,37.1,25.6
			c3.6-4.4,7.5-8.8,11-13.2C624.1,131.8,609.6,120.6,595.8,111.2z"/>
		<path class="st6" d="M675.7,189.5c-8-17.4-21.1-33.5-36-47.8c-3.6,4.4-7.5,8.8-11,13.2c14.1,12.9,24.7,27.4,32.6,42.1
			C666.2,194.5,670.8,191.8,675.7,189.5z"/>
		<path class="st6" d="M682.8,246.9c2.9,0.1,5.9-0.3,8.8-0.2c-0.9-15.6-3.5-32.7-9.3-49.4c-1.1-3.1-2.3-6.1-3.7-9.1
			c-4.8,2.2-9.5,4.9-14.4,7.5C673.6,213.1,679.4,230.9,682.8,246.9z"/>
		<path class="st6" d="M694.4,246.6c-2.9-0.1-5.9,0.3-8.8,0.2c7.2,33.7,4.4,59.9,4.4,59.9S696.3,280.2,694.4,246.6z"/>
	</g>
	<g>
		<path class="st7" d="M482.7,241.9c0,0-5.5,0.8-8.6,8.9c0,0-1.1,17.4,19.3,10.1c15.3-5.5,30-8.5,44-9.5c-0.8-5.6-1.3-11.4-2.1-17.1
			C517.1,235.3,498.9,238.3,482.7,241.9z"/>
		<path class="st7" d="M594.4,237.2c-18.2-6-38.9-7.5-59.5-6.4c0.8,5.6,1.3,11.4,2.1,17.1c19.1-1.4,36.9,0.7,53,5
			C591.6,247.5,592.8,242.3,594.4,237.2z"/>
		<path class="st7" d="M641.2,271.3c2-2.1,3.9-4.5,5.9-6.6c-12-10-26.2-19.8-42.4-27c-3-1.3-6.1-2.5-9.2-3.5
			c-1.7,5.1-2.9,10.3-4.4,15.6C610.2,254.8,627.1,262.8,641.2,271.3z"/>
		<path class="st7" d="M648.9,262.6c-2,2.1-3.8,4.5-5.9,6.6c29.5,17.8,46.7,37.8,46.7,37.8S674.7,284.2,648.9,262.6z"/>
	</g>
	<g>
		<path class="st8" d="M491.6,398.8c0,0-3.5,4.3-0.3,12.4c0,0,11,13.6,21-5.6c7.5-14.4,16.4-26.5,26-36.7
			c-4.4-3.6-8.7-7.6-13.1-11.2C512.4,370.7,501.1,385.2,491.6,398.8z"/>
		<path class="st8" d="M570.8,319.9c-17.5,7.8-33.8,20.7-48.2,35.4c4.4,3.6,8.7,7.6,13.1,11.2c13.1-13.9,27.7-24.4,42.5-32.1
			C575.6,329.4,573,324.8,570.8,319.9z"/>
		<path class="st8" d="M628.3,313.4c0.1-2.9-0.2-5.9-0.1-8.8c-15.6,0.7-32.7,3.1-49.5,8.7c-3.1,1-6.2,2.2-9.2,3.6
			c2.2,4.9,4.8,9.5,7.3,14.5C594.3,322.2,612.2,316.7,628.3,313.4z"/>
		<path class="st8" d="M628.1,301.8c-0.1,2.9,0.2,5.9,0.1,8.8c33.7-6.8,60-3.7,60-3.7S661.8,300.4,628.1,301.8z"/>
	</g>
	<g>
		<path class="st2" d="M560.2,186.5c0,0,4.3,3.5,12.4,0.3c0,0,13.6-11-5.6-21c-14.4-7.5-26.5-16.4-36.7-26
			c-3.6,4.4-7.6,8.7-11.2,13.1C532.1,165.6,546.5,177,560.2,186.5z"/>
		<path class="st2" d="M481.3,107.3c7.8,17.5,20.7,33.8,35.4,48.2c3.6-4.4,7.6-8.7,11.2-13.1c-13.9-13.1-24.4-27.7-32.1-42.5
			C490.8,102.5,486.1,105.1,481.3,107.3z"/>
		<path class="st2" d="M474.8,49.8c-2.9-0.1-5.9,0.2-8.8,0.1c0.7,15.6,3.1,32.7,8.7,49.5c1,3.1,2.2,6.2,3.6,9.2
			c4.9-2.2,9.5-4.8,14.5-7.3C483.6,83.8,478,65.9,474.8,49.8z"/>
		<path class="st2" d="M463.2,50c2.9,0.1,5.9-0.2,8.8-0.1c-6.8-33.7-3.7-60-3.7-60S461.7,16.3,463.2,50z"/>
	</g>
	<g>
		<path class="st3" d="M560.1,305.3c0,0,5.5,0.5,10.4-6.8c0,0,5-16.7-16.5-14.2c-16.1,1.9-31.1,1.5-45-0.6
			c-0.5,5.7-1.3,11.4-1.8,17.1C525.1,304.1,543.5,305.2,560.1,305.3z"/>
		<path class="st3" d="M450.2,284.7c16.3,10,36.2,16.1,56.5,19.7c0.5-5.7,1.3-11.4,1.8-17.1c-18.9-2.9-35.7-9-50.5-16.8
			C455.3,275.4,452.9,280.2,450.2,284.7z"/>
		<path class="st3" d="M412.3,241c-2.5,1.5-4.8,3.5-7.2,5.1c9.4,12.5,21.1,25.2,35.2,35.9c2.6,2,5.3,3.8,8.2,5.5
			c2.8-4.5,5.1-9.3,7.8-14.3C438.7,264.1,424.1,252.5,412.3,241z"/>
		<path class="st3" d="M402.8,247.8c2.4-1.6,4.8-3.6,7.2-5.1c-24.7-24-37-47.4-37-47.4S382.6,220.9,402.8,247.8z"/>
	</g>
	<g>
		<path class="st4" d="M591.9,385.2c0,0,4-3.8,1.9-12.3c0,0-9.2-14.9-21.6,3c-9.3,13.3-19.5,24.3-30.4,33.3
			c3.9,4.1,7.7,8.6,11.6,12.7C567.7,410.5,580.8,397.6,591.9,385.2z"/>
		<path class="st4" d="M503.5,453.8c18.3-5.6,36.1-16.4,52.2-29.2c-3.9-4.1-7.7-8.6-11.6-12.7c-14.7,12.2-30.5,20.8-46.1,26.6
			C500,443.8,502,448.7,503.5,453.8z"/>
		<path class="st4" d="M445.7,453.1c-0.5,2.9-0.5,5.9-1,8.8c15.6,1.3,32.9,1,50.2-2.5c3.2-0.6,6.4-1.5,9.6-2.4
			c-1.6-5.1-3.6-10-5.5-15.3C480.5,448.6,462.1,451.9,445.7,453.1z"/>
		<path class="st4" d="M444.5,464.7c0.5-2.9,0.5-5.9,1-8.8c-34.3,2.6-60-3.8-60-3.8S410.9,462,444.5,464.7z"/>
	</g>
	<g>
		<path class="st5" d="M667.2,474.1c0,0,0.8-5.5-6.1-10.8c0,0-16.4-6-15.1,15.7c1,16.2-0.3,31.2-3.2,44.9c5.6,0.8,11.3,2,17,2.8
			C663.9,508.9,666.1,490.7,667.2,474.1z"/>
		<path class="st5" d="M640.3,582.7c10.9-15.7,18.1-35.2,22.9-55.3c-5.6-0.8-11.3-2-17-2.8c-4,18.7-11.1,35.2-19.7,49.5
			C631.2,577,635.9,579.6,640.3,582.7z"/>
		<path class="st5" d="M594.5,618c1.4,2.5,3.3,5,4.7,7.5c13-8.7,26.4-19.6,37.9-33.1c2.1-2.5,4.1-5.1,6-7.8c-4.4-3-9-5.7-13.8-8.6
			C619,592.9,606.6,606.9,594.5,618z"/>
		<path class="st5" d="M600.7,627.8c-1.4-2.5-3.3-5-4.7-7.5c-25.3,23.3-49.4,34.2-49.4,34.2S572.6,646.5,600.7,627.8z"/>
	</g>
	<g>
		<path class="st6" d="M816.3,450.9c0,0-3.7-4.1-12.2-2.2c0,0-15.1,8.8,2.4,21.6c13.1,9.6,23.7,20.2,32.4,31.3
			c4.2-3.8,8.8-7.4,13-11.2C840.9,475.7,828.3,462.3,816.3,450.9z"/>
		<path class="st6" d="M882.3,541.1c-5.1-18.4-15.4-36.5-27.8-53c-4.2,3.8-8.8,7.4-13,11.2c11.8,15.1,19.9,31,25.4,46.9
			C872.2,544.4,877.2,542.5,882.3,541.1z"/>
		<path class="st6" d="M880.1,598.9c2.8,0.6,5.9,0.7,8.8,1.2c1.7-15.5,1.9-32.8-1.1-50.3c-0.6-3.2-1.3-6.4-2.2-9.6
			c-5.1,1.4-10.1,3.3-15.4,5.1C876.5,564,879.3,582.5,880.1,598.9z"/>
		<path class="st6" d="M891.6,600.4c-2.9-0.5-5.9-0.7-8.8-1.2c1.6,34.4-5.4,59.8-5.4,59.8S887.9,633.9,891.6,600.4z"/>
	</g>
	<g>
		<path class="st7" d="M820.5,321.8c0,0-5.4-1.2-11.2,5.4c0,0-7.1,16,14.6,16.2c16.2,0.2,31.1,2.5,44.6,6.4c1.2-5.6,2.8-11.2,4-16.7
			C855,327.6,837,324.1,820.5,321.8z"/>
		<path class="st7" d="M926.9,356.4c-14.9-12-33.8-20.6-53.5-26.8c-1.2,5.6-2.8,11.2-4,16.7c18.4,5.3,34.3,13.5,48,23.2
			C920.6,365,923.5,360.6,926.9,356.4z"/>
		<path class="st7" d="M958.8,404.6c2.6-1.2,5.2-2.9,7.8-4.1c-7.7-13.6-17.7-27.7-30.3-40.1c-2.3-2.3-4.8-4.5-7.4-6.5
			c-3.3,4.2-6.3,8.6-9.6,13.1C935.5,378.4,948.6,391.8,958.8,404.6z"/>
		<path class="st7" d="M969,399.1c-2.6,1.2-5.2,2.9-7.8,4.1c21.4,26.9,30.6,51.7,30.6,51.7S985.7,428.4,969,399.1z"/>
	</g>
	<g>
		<path class="st8" d="M811.2,202.2c0,0-4,3.8-1.8,12.3c0,0,9.2,14.8,21.6-3c9.2-13.4,19.5-24.3,30.3-33.3
			c-3.9-4.1-7.7-8.6-11.6-12.7C835.3,176.8,822.3,189.8,811.2,202.2z"/>
		<path class="st8" d="M899.4,133.4c-18.3,5.7-36,16.5-52.2,29.3c3.9,4.1,7.7,8.6,11.6,12.7c14.7-12.2,30.4-20.8,46.1-26.8
			C903,143.5,901,138.5,899.4,133.4z"/>
		<path class="st8" d="M957.3,134c0.5-2.9,0.5-5.9,0.9-8.8c-15.6-1.2-32.9-0.9-50.2,2.6c-3.2,0.7-6.4,1.5-9.5,2.5
			c1.6,5.1,3.6,10,5.5,15.3C922.5,138.6,940.8,135.2,957.3,134z"/>
		<path class="st8" d="M958.4,122.4c-0.4,2.9-0.5,5.9-0.9,8.8c34.3-2.7,60,3.6,60,3.6S992,125,958.4,122.4z"/>
	</g>
	<g>
		<path class="st1" d="M692.8,168.8c0,0-0.4,5.5,7,10.3c0,0,16.8,4.7,13.8-16.8c-2.2-16.1-2.1-31.1-0.2-45
			c-5.7-0.4-11.5-1.1-17.1-1.5C693.4,133.8,692.6,152.2,692.8,168.8z"/>
		<path class="st1" d="M711.2,58.5c-9.6,16.5-15.4,36.5-18.6,56.9c5.7,0.4,11.5,1.1,17.1,1.5c2.5-18.9,8.3-35.9,15.8-50.9
			C720.7,63.4,715.8,61.2,711.2,58.5z"/>
		<path class="st1" d="M754.2,19.8c-1.6-2.4-3.6-4.7-5.2-7.1c-12.3,9.6-24.8,21.6-35.2,35.9c-1.9,2.6-3.7,5.4-5.4,8.3
			c4.6,2.7,9.4,4.9,14.4,7.5C731.7,46.7,743,31.8,754.2,19.8z"/>
		<path class="st1" d="M747.3,10.5c1.6,2.4,3.7,4.7,5.2,7.1c23.5-25.2,46.6-37.9,46.6-37.9S773.8-10.3,747.3,10.5z"/>
	</g>
</g>
<g id="Layer_1">
	<rect x="431.7" class="st9" width="36.2" height="648"/>
	<g>
		<path d="M1191.8,518.9h1v7.2h3.5v0.9h-4.5V518.9z"/>
		<path class="st10" d="M1198.7,508.1h2.4v9.1h0.1c0.5-0.7,1-1.4,1.5-2l5.8-7.1h3l-6.8,8l7.4,10.9h-2.9l-6.2-9.3l-1.8,2.1v7.2h-2.4
			V508.1z"/>
		<path class="st10" d="M1221.8,527l-0.2-1.7h-0.1c-0.8,1.1-2.2,2-4.1,2c-2.7,0-4.1-1.9-4.1-3.9c0-3.3,2.9-5.1,8.1-5V518
			c0-1.1-0.3-3.1-3.1-3.1c-1.3,0-2.6,0.4-3.5,1l-0.6-1.6c1.1-0.7,2.7-1.2,4.5-1.2c4.1,0,5.2,2.8,5.2,5.5v5.1c0,1.2,0.1,2.3,0.2,3.2
			H1221.8z M1221.4,520c-2.7-0.1-5.7,0.4-5.7,3.1c0,1.6,1.1,2.4,2.3,2.4c1.8,0,2.9-1.1,3.3-2.3c0.1-0.3,0.1-0.5,0.1-0.8V520z"/>
		<path class="st10" d="M1227.8,507.1h2.5V527h-2.5V507.1z"/>
		<path class="st10" d="M1194.4,554.2c0.1,3.3,2.2,4.7,4.6,4.7c1.8,0,2.8-0.3,3.8-0.7l0.4,1.8c-0.9,0.4-2.4,0.8-4.5,0.8
			c-4.2,0-6.7-2.7-6.7-6.8s2.4-7.3,6.4-7.3c4.4,0,5.6,3.9,5.6,6.4c0,0.5-0.1,0.9-0.1,1.1H1194.4z M1201.6,552.5c0-1.6-0.6-4-3.4-4
			c-2.5,0-3.6,2.3-3.8,4H1201.6z"/>
		<path class="st10" d="M1209.8,543.2c0,0.8-0.6,1.5-1.6,1.5c-0.9,0-1.5-0.7-1.5-1.5c0-0.9,0.6-1.5,1.5-1.5
			C1209.2,541.7,1209.8,542.3,1209.8,543.2z M1207,560.6V547h2.5v13.6H1207z"/>
		<path class="st10" d="M1225.3,540.7v16.4c0,1.2,0,2.6,0.1,3.5h-2.2l-0.1-2.4h-0.1c-0.8,1.5-2.4,2.7-4.6,2.7
			c-3.3,0-5.8-2.8-5.8-6.9c0-4.5,2.8-7.3,6.1-7.3c2.1,0,3.5,1,4.1,2.1h0.1v-8.1H1225.3z M1222.8,552.5c0-0.3,0-0.7-0.1-1
			c-0.4-1.6-1.7-2.9-3.6-2.9c-2.5,0-4.1,2.2-4.1,5.2c0,2.7,1.3,5,4,5c1.7,0,3.2-1.1,3.6-2.9c0.1-0.3,0.1-0.7,0.1-1.1V552.5z"/>
		<path class="st10" d="M1241.6,553.7c0,5-3.5,7.2-6.7,7.2c-3.7,0-6.5-2.7-6.5-7c0-4.5,3-7.2,6.7-7.2
			C1239,546.7,1241.6,549.5,1241.6,553.7z M1230.9,553.8c0,3,1.7,5.2,4.1,5.2c2.4,0,4.1-2.2,4.1-5.3c0-2.3-1.1-5.2-4.1-5.2
			C1232.1,548.5,1230.9,551.2,1230.9,553.8z"/>
		<path class="st10" d="M1192.6,591.6c0.7,0.5,2,1,3.2,1c1.8,0,2.6-0.9,2.6-2c0-1.2-0.7-1.8-2.5-2.5c-2.4-0.9-3.6-2.2-3.6-3.8
			c0-2.2,1.8-4,4.7-4c1.4,0,2.6,0.4,3.3,0.8l-0.6,1.8c-0.5-0.3-1.5-0.8-2.8-0.8c-1.5,0-2.3,0.8-2.3,1.8c0,1.1,0.8,1.6,2.6,2.3
			c2.4,0.9,3.6,2.1,3.6,4.1c0,2.4-1.8,4.1-5.1,4.1c-1.5,0-2.9-0.4-3.8-0.9L1192.6,591.6z"/>
		<path class="st10" d="M1213.7,593.6c-0.6,0.3-2.1,0.8-3.9,0.8c-4.1,0-6.7-2.8-6.7-6.9c0-4.2,2.9-7.2,7.3-7.2
			c1.5,0,2.7,0.4,3.4,0.7l-0.6,1.9c-0.6-0.3-1.5-0.6-2.9-0.6c-3.1,0-4.8,2.3-4.8,5.1c0,3.1,2,5.1,4.7,5.1c1.4,0,2.3-0.4,3-0.7
			L1213.7,593.6z"/>
		<path class="st10" d="M1228.7,587.3c0,5-3.5,7.2-6.7,7.2c-3.7,0-6.5-2.7-6.5-7c0-4.5,3-7.2,6.7-7.2
			C1226.1,580.3,1228.7,583.1,1228.7,587.3z M1218,587.4c0,3,1.7,5.2,4.1,5.2c2.4,0,4.1-2.2,4.1-5.3c0-2.3-1.1-5.2-4.1-5.2
			C1219.2,582.1,1218,584.8,1218,587.4z"/>
		<path class="st10" d="M1193,618.6c0-1.7-0.1-3.1-0.1-4.4h2.2l0.1,2.3h0.1c1-1.7,2.6-2.6,4.8-2.6c3.3,0,5.7,2.8,5.7,6.9
			c0,4.9-3,7.3-6.2,7.3c-1.8,0-3.4-0.8-4.2-2.1h-0.1v7.4h-2.4V618.6z M1195.4,622.2c0,0.4,0.1,0.7,0.1,1c0.4,1.7,1.9,2.9,3.7,2.9
			c2.6,0,4.1-2.1,4.1-5.2c0-2.7-1.4-5-4-5c-1.7,0-3.2,1.2-3.7,3.1c-0.1,0.3-0.2,0.7-0.2,1V622.2z"/>
		<path class="st10" d="M1210.3,621.4c0.1,3.3,2.2,4.7,4.6,4.7c1.8,0,2.8-0.3,3.8-0.7l0.4,1.8c-0.9,0.4-2.4,0.8-4.5,0.8
			c-4.2,0-6.7-2.7-6.7-6.8s2.4-7.3,6.4-7.3c4.4,0,5.6,3.9,5.6,6.4c0,0.5-0.1,0.9-0.1,1.1H1210.3z M1217.5,619.7c0-1.6-0.6-4-3.4-4
			c-2.5,0-3.6,2.3-3.8,4H1217.5z"/>
	</g>
</g>
<g id="Layer_4">
	<g>
		<g>
			<path class="st10" d="M-110,27.3c3.2,0,3.2-5,0-5C-113.2,22.3-113.2,27.3-110,27.3L-110,27.3z"/>
		</g>
	</g>
	<g>
		<g>
			<path class="st10" d="M616.4,63.1c1.6,0,1.6-2.5,0-2.5C614.8,60.6,614.8,63.1,616.4,63.1L616.4,63.1z"/>
		</g>
	</g>
	<g>
		<g>
			<path class="st10" d="M513.9,198.9c1.6,0,1.6-2.5,0-2.5C512.3,196.4,512.3,198.9,513.9,198.9L513.9,198.9z"/>
		</g>
	</g>
	<g>
		<g>
			<path class="st10" d="M606.9,218.8c1.6,0,1.6-2.5,0-2.5C605.3,216.3,605.3,218.8,606.9,218.8L606.9,218.8z"/>
		</g>
	</g>
	<g>
		<g>
			<path class="st10" d="M600.3,287.2c1.6,0,1.6-2.5,0-2.5C598.7,284.7,598.7,287.2,600.3,287.2L600.3,287.2z"/>
		</g>
	</g>
	<g>
		<g>
			<path class="st10" d="M492,325.2c1.6,0,1.6-2.5,0-2.5C490.4,322.7,490.4,325.2,492,325.2L492,325.2z"/>
		</g>
	</g>
	<g>
		<g>
			<path class="st10" d="M535.7,393.5c1.6,0,1.6-2.5,0-2.5C534.1,391,534.1,393.5,535.7,393.5L535.7,393.5z"/>
		</g>
	</g>
	<g>
		<g>
			<path class="st10" d="M623.1,350.8c1.6,0,1.6-2.5,0-2.5C621.4,348.3,621.4,350.8,623.1,350.8L623.1,350.8z"/>
		</g>
	</g>
	<g>
		<g>
			<path class="st10" d="M550.9,473.3c1.6,0,1.6-2.5,0-2.5C549.3,470.8,549.3,473.3,550.9,473.3L550.9,473.3z"/>
		</g>
	</g>
	<g>
		<g>
			<path class="st10" d="M531.9,527.4c1.6,0,1.6-2.5,0-2.5C530.3,524.9,530.3,527.4,531.9,527.4L531.9,527.4z"/>
		</g>
	</g>
	<g>
		<g>
			<path class="st10" d="M508.2,592.9c1.6,0,1.6-2.5,0-2.5C506.6,590.4,506.6,592.9,508.2,592.9L508.2,592.9z"/>
		</g>
	</g>
	<g>
		<g>
			<path class="st10" d="M578.4,575.8c1.6,0,1.6-2.5,0-2.5C576.8,573.3,576.8,575.8,578.4,575.8L578.4,575.8z"/>
		</g>
	</g>
	<g>
		<g>
			<path class="st10" d="M667.7,434.3c1.6,0,1.6-2.5,0-2.5C666.1,431.8,666.1,434.3,667.7,434.3L667.7,434.3z"/>
		</g>
	</g>
	<g>
		<g>
			<path class="st10" d="M654.4,396.4c1.6,0,1.6-2.5,0-2.5C652.8,393.9,652.8,396.4,654.4,396.4L654.4,396.4z"/>
		</g>
	</g>
	<g>
		<g>
			<path class="st10" d="M626.9,443.8c1.6,0,1.6-2.5,0-2.5C625.2,441.3,625.2,443.8,626.9,443.8L626.9,443.8z"/>
		</g>
	</g>
	<g>
		<g>
			<path class="st10" d="M747.4,414.4c1.6,0,1.6-2.5,0-2.5C745.8,411.9,745.8,414.4,747.4,414.4L747.4,414.4z"/>
		</g>
	</g>
	<g>
		<g>
			<path class="st10" d="M770.2,350.8c1.6,0,1.6-2.5,0-2.5C768.6,348.3,768.6,350.8,770.2,350.8L770.2,350.8z"/>
		</g>
	</g>
	<g>
		<g>
			<path class="st10" d="M864.2,299.5c1.6,0,1.6-2.5,0-2.5C862.6,297,862.6,299.5,864.2,299.5L864.2,299.5z"/>
		</g>
	</g>
	<g>
		<g>
			<path class="st10" d="M799.7,272.9c1.6,0,1.6-2.5,0-2.5C798,270.4,798,272.9,799.7,272.9L799.7,272.9z"/>
		</g>
	</g>
	<g>
		<g>
			<path class="st10" d="M797.8,172.3c1.6,0,1.6-2.5,0-2.5C796.2,169.8,796.1,172.3,797.8,172.3L797.8,172.3z"/>
		</g>
	</g>
	<g>
		<g>
			<path class="st10" d="M844.3,100.1c1.6,0,1.6-2.5,0-2.5C842.7,97.6,842.7,100.1,844.3,100.1L844.3,100.1z"/>
		</g>
	</g>
	<g>
		<g>
			<path class="st10" d="M793,66.9c1.6,0,1.6-2.5,0-2.5C791.4,64.4,791.4,66.9,793,66.9L793,66.9z"/>
		</g>
	</g>
	<g>
		<g>
			<path class="st10" d="M832.9,125.8c1.6,0,1.6-2.5,0-2.5C831.3,123.3,831.3,125.8,832.9,125.8L832.9,125.8z"/>
		</g>
	</g>
	<g>
		<g>
			<path class="st10" d="M836.7,431.5c1.6,0,1.6-2.5,0-2.5C835.1,429,835.1,431.5,836.7,431.5L836.7,431.5z"/>
		</g>
	</g>
	<g>
		<g>
			<path class="st10" d="M819.6,545.4c1.6,0,1.6-2.5,0-2.5C818,542.9,818,545.4,819.6,545.4L819.6,545.4z"/>
		</g>
	</g>
	<g>
		<g>
			<path class="st10" d="M757.9,600.5c1.6,0,1.6-2.5,0-2.5C756.3,598,756.3,600.5,757.9,600.5L757.9,600.5z"/>
		</g>
	</g>
	<g>
		<g>
			<path class="st10" d="M818.6,633.7c1.6,0,1.6-2.5,0-2.5C817,631.2,817,633.7,818.6,633.7L818.6,633.7z"/>
		</g>
	</g>
	<g>
		<g>
			<path class="st10" d="M879.4,447.6c1.6,0,1.6-2.5,0-2.5C877.8,445.1,877.8,447.6,879.4,447.6L879.4,447.6z"/>
		</g>
	</g>
	<g>
		<g>
			<path class="st10" d="M489.2,508.4c1.6,0,1.6-2.5,0-2.5C487.6,505.9,487.6,508.4,489.2,508.4L489.2,508.4z"/>
		</g>
	</g>
	<g>
		<g>
			<path class="st10" d="M557.5,621.4c1.6,0,1.6-2.5,0-2.5C555.9,618.9,555.9,621.4,557.5,621.4L557.5,621.4z"/>
		</g>
	</g>
	<g>
		<g>
			<path class="st10" d="M721.8,210.3c1.6,0,1.6-2.5,0-2.5C720.2,207.8,720.2,210.3,721.8,210.3L721.8,210.3z"/>
		</g>
	</g>
	<g>
		<g>
			<path class="st10" d="M23,42.2c1.6,0,1.6-2.5,0-2.5C21.4,39.7,21.4,42.2,23,42.2L23,42.2z"/>
		</g>
	</g>
	<g>
		<g>
			<path class="st10" d="M153.1,59.3c1.6,0,1.6-2.5,0-2.5C151.4,56.8,151.4,59.3,153.1,59.3L153.1,59.3z"/>
		</g>
	</g>
	<g>
		<g>
			<path class="st10" d="M119.8,153.3c1.6,0,1.6-2.5,0-2.5C118.2,150.8,118.2,153.3,119.8,153.3L119.8,153.3z"/>
		</g>
	</g>
	<g>
		<g>
			<path class="st10" d="M61.9,163.7c1.6,0,1.6-2.5,0-2.5C60.3,161.2,60.3,163.7,61.9,163.7L61.9,163.7z"/>
		</g>
	</g>
	<g>
		<g>
			<path class="st10" d="M52.4,109.6c1.6,0,1.6-2.5,0-2.5C50.8,107.1,50.8,109.6,52.4,109.6L52.4,109.6z"/>
		</g>
	</g>
	<g>
		<g>
			<path class="st10" d="M60,310.9c1.6,0,1.6-2.5,0-2.5C58.4,308.4,58.4,310.9,60,310.9L60,310.9z"/>
		</g>
	</g>
	<g>
		<g>
			<path class="st10" d="M83.7,239.7c1.6,0,1.6-2.5,0-2.5C82.1,237.2,82.1,239.7,83.7,239.7L83.7,239.7z"/>
		</g>
	</g>
	<g>
		<g>
			<path class="st10" d="M23.9,237.8c1.6,0,1.6-2.5,0-2.5C22.3,235.3,22.3,237.8,23.9,237.8L23.9,237.8z"/>
		</g>
	</g>
	<g>
		<g>
			<path class="st10" d="M157.8,228.3c1.6,0,1.6-2.5,0-2.5C156.2,225.8,156.2,228.3,157.8,228.3L157.8,228.3z"/>
		</g>
	</g>
	<g>
		<g>
			<path class="st10" d="M159.7,165.6c1.6,0,1.6-2.5,0-2.5C158.1,163.1,158.1,165.6,159.7,165.6L159.7,165.6z"/>
		</g>
	</g>
	<g>
		<g>
			<path class="st10" d="M224.3,122.9c1.6,0,1.6-2.5,0-2.5C222.7,120.4,222.7,122.9,224.3,122.9L224.3,122.9z"/>
		</g>
	</g>
	<g>
		<g>
			<path class="st10" d="M195.8,63.1c1.6,0,1.6-2.5,0-2.5C194.2,60.6,194.2,63.1,195.8,63.1L195.8,63.1z"/>
		</g>
	</g>
	<g>
		<g>
			<path class="st10" d="M250.9,240.7c1.6,0,1.6-2.5,0-2.5C249.2,238.2,249.2,240.7,250.9,240.7L250.9,240.7z"/>
		</g>
	</g>
	<g>
		<g>
			<path class="st10" d="M149.3,351.7c1.6,0,1.6-2.5,0-2.5C147.7,349.2,147.6,351.7,149.3,351.7L149.3,351.7z"/>
		</g>
	</g>
	<g>
		<g>
			<path class="st10" d="M279.3,387.8c1.6,0,1.6-2.5,0-2.5C277.7,385.3,277.7,387.8,279.3,387.8L279.3,387.8z"/>
		</g>
	</g>
	<g>
		<g>
			<path class="st10" d="M310.7,237.8c1.6,0,1.6-2.5,0-2.5C309.1,235.3,309.1,237.8,310.7,237.8L310.7,237.8z"/>
		</g>
	</g>
	<g>
		<g>
			<path class="st10" d="M310.7,160.9c1.6,0,1.6-2.5,0-2.5C309.1,158.4,309.1,160.9,310.7,160.9L310.7,160.9z"/>
		</g>
	</g>
	<g>
		<g>
			<path class="st10" d="M362.9,102c1.6,0,1.6-2.5,0-2.5C361.3,99.5,361.3,102,362.9,102L362.9,102z"/>
		</g>
	</g>
	<g>
		<g>
			<path class="st10" d="M262.2,366c1.6,0,1.6-2.5,0-2.5C260.6,363.5,260.6,366,262.2,366L262.2,366z"/>
		</g>
	</g>
	<g>
		<g>
			<path class="st10" d="M78,468.5c1.6,0,1.6-2.5,0-2.5C76.4,466,76.4,468.5,78,468.5L78,468.5z"/>
		</g>
	</g>
	<g>
		<g>
			<path class="st10" d="M78,544.5c1.6,0,1.6-2.5,0-2.5C76.4,542,76.4,544.5,78,544.5L78,544.5z"/>
		</g>
	</g>
	<g>
		<g>
			<path class="st10" d="M195.8,438.1c1.6,0,1.6-2.5,0-2.5C194.2,435.6,194.2,438.1,195.8,438.1L195.8,438.1z"/>
		</g>
	</g>
	<g>
		<g>
			<path class="st10" d="M282.2,433.4c1.6,0,1.6-2.5,0-2.5C280.6,430.9,280.6,433.4,282.2,433.4L282.2,433.4z"/>
		</g>
	</g>
	<g>
		<g>
			<path class="st10" d="M207.2,306.2c1.6,0,1.6-2.5,0-2.5C205.6,303.7,205.6,306.2,207.2,306.2L207.2,306.2z"/>
		</g>
	</g>
	<g>
		<g>
			<path class="st10" d="M415.1,340.3c1.6,0,1.6-2.5,0-2.5C413.5,337.8,413.5,340.3,415.1,340.3L415.1,340.3z"/>
		</g>
	</g>
	<g>
		<g>
			<path class="st10" d="M348.7,458.1c1.6,0,1.6-2.5,0-2.5C347,455.6,347,458.1,348.7,458.1L348.7,458.1z"/>
		</g>
	</g>
	<g>
		<g>
			<path class="st10" d="M393.3,537.8c1.6,0,1.6-2.5,0-2.5C391.7,535.3,391.7,537.8,393.3,537.8L393.3,537.8z"/>
		</g>
	</g>
	<g>
		<g>
			<path class="st10" d="M339.2,353.6c1.6,0,1.6-2.5,0-2.5C337.5,351.1,337.5,353.6,339.2,353.6L339.2,353.6z"/>
		</g>
	</g>
	<g>
		<g>
			<path class="st10" d="M251.8,568.2c1.6,0,1.6-2.5,0-2.5C250.2,565.7,250.2,568.2,251.8,568.2L251.8,568.2z"/>
		</g>
	</g>
	<g>
		<g>
			<path class="st10" d="M211.9,481.8c1.6,0,1.6-2.5,0-2.5C210.3,479.3,210.3,481.8,211.9,481.8L211.9,481.8z"/>
		</g>
	</g>
	<g>
		<g>
			<path class="st10" d="M128.4,488.5c1.6,0,1.6-2.5,0-2.5C126.8,486,126.8,488.5,128.4,488.5L128.4,488.5z"/>
		</g>
	</g>
	<g>
		<g>
			<path class="st10" d="M103.7,429.6c1.6,0,1.6-2.5,0-2.5C102.1,427.1,102.1,429.6,103.7,429.6L103.7,429.6z"/>
		</g>
	</g>
	<g>
		<g>
			<path class="st10" d="M325.9,544.5c1.6,0,1.6-2.5,0-2.5C324.3,542,324.3,544.5,325.9,544.5L325.9,544.5z"/>
		</g>
	</g>
	<g>
		<g>
			<path class="st10" d="M354.3,600.5c1.6,0,1.6-2.5,0-2.5C352.7,598,352.7,600.5,354.3,600.5L354.3,600.5z"/>
		</g>
	</g>
	<g>
		<g>
			<path class="st10" d="M160.7,593.9c1.6,0,1.6-2.5,0-2.5C159,591.4,159,593.9,160.7,593.9L160.7,593.9z"/>
		</g>
	</g>
	<g>
		<g>
			<path class="st10" d="M24.9,398.3c1.6,0,1.6-2.5,0-2.5C23.3,395.8,23.3,398.3,24.9,398.3L24.9,398.3z"/>
		</g>
	</g>
	<g>
		<g>
			<path class="st10" d="M270.8,468.5c1.6,0,1.6-2.5,0-2.5C269.2,466,269.2,468.5,270.8,468.5L270.8,468.5z"/>
		</g>
	</g>
	<g>
		<g>
			<path class="st10" d="M305.9,62.1c1.6,0,1.6-2.5,0-2.5C304.3,59.6,304.3,62.1,305.9,62.1L305.9,62.1z"/>
		</g>
	</g>
	<g>
		<g>
			<path class="st10" d="M270.8,207.4c1.6,0,1.6-2.5,0-2.5C269.2,204.9,269.2,207.4,270.8,207.4L270.8,207.4z"/>
		</g>
	</g>
	<g>
		<g>
			<path class="st10" d="M180.6,248.2c1.6,0,1.6-2.5,0-2.5C179,245.7,179,248.2,180.6,248.2L180.6,248.2z"/>
		</g>
	</g>
	<g>
		<g>
			<path class="st10" d="M266,303.3c1.6,0,1.6-2.5,0-2.5C264.4,300.8,264.4,303.3,266,303.3L266,303.3z"/>
		</g>
	</g>
	<g>
		<g>
			<path class="st10" d="M223.3,391.6c1.6,0,1.6-2.5,0-2.5C221.7,389.1,221.7,391.6,223.3,391.6L223.3,391.6z"/>
		</g>
	</g>
	<g>
		<g>
			<path class="st10" d="M844.3,28.9c1.6,0,1.6-2.5,0-2.5C842.7,26.4,842.7,28.9,844.3,28.9L844.3,28.9z"/>
		</g>
	</g>
	<g>
		<g>
			<path class="st10" d="M709.5,534.3c1.6,0,1.6-2.5,0-2.5C707.9,531.8,707.9,534.3,709.5,534.3L709.5,534.3z"/>
		</g>
	</g>
	<g>
		<g>
			<path class="st10" d="M683.7,617.1c1.6,0,1.6-2.5,0-2.5C682.1,614.6,682.1,617.1,683.7,617.1L683.7,617.1z"/>
		</g>
	</g>
	<g>
		<g>
			<path class="st10" d="M536.4,113.7c1.6,0,1.6-2.5,0-2.5C534.8,111.2,534.8,113.7,536.4,113.7L536.4,113.7z"/>
		</g>
	</g>
	<g>
		<g>
			<path class="st10" d="M654.7,120.2c1.6,0,1.6-2.5,0-2.5C653.1,117.7,653.1,120.2,654.7,120.2L654.7,120.2z"/>
		</g>
	</g>
</g>
<g id="Layer_5">
</g>
<g id="Layer_8">
	<rect x="270.8" y="513" class="st10" width="136.7" height="125.9"/>
</g>
<g id="Layer_6">
	<g>
		<g>
			<path class="st10" d="M520.3,70.6v-0.7c1.5,0,2.3-0.3,2.3-0.9c0-0.8-2.5-3.8-7.5-8.9l-1.7,1.2v5.4c0,0.7,0,1.2,0.1,1.7
				c0.1,0.4,0.2,0.8,0.4,1c0.2,0.2,0.5,0.4,0.9,0.5c0.4,0.1,1,0.1,1.6,0.1v0.7h-9.5v-0.7c0.7,0,1.2,0,1.6-0.1
				c0.4-0.1,0.7-0.3,0.9-0.5c0.2-0.2,0.3-0.6,0.4-1c0.1-0.4,0.1-1,0.1-1.7V52.4c0-0.7,0-1.2-0.1-1.7c-0.1-0.4-0.2-0.8-0.4-1
				c-0.2-0.2-0.5-0.4-0.9-0.5c-0.4-0.1-1-0.1-1.6-0.1v-0.7h9.5v0.7c-0.7,0-1.2,0-1.6,0.1c-0.4,0.1-0.7,0.3-0.9,0.5
				c-0.2,0.2-0.3,0.6-0.4,1c-0.1,0.4-0.1,1-0.1,1.7v7.3l6.1-5.6c2-1.8,3-3.1,3-3.9c0-0.6-0.7-1-2.2-1.1v-0.7h8.6v0.7
				c-1.1,0-1.9,0.2-2.6,0.6c-0.2,0.2-0.4,0.3-0.6,0.4c-0.1,0.1-0.3,0.2-0.5,0.4c-0.2,0.2-0.4,0.4-0.7,0.7c-0.3,0.3-0.7,0.7-1.3,1.3
				c-0.5,0.5-1.3,1.3-2.1,2.1c-0.9,0.9-2,2-3.3,3.3c1.4,1.5,2.8,3.1,4.2,4.8c1.4,1.7,2.9,3.5,4.4,5.4c1,1.3,2.2,1.9,3.5,1.9h0.3v0.7
				H520.3z"/>
			<path class="st10" d="M544.8,69.1c-1.1,1.2-2.1,1.8-3.2,1.8c-1.3,0-2-0.8-2-2.5c-2.1,1.7-3.9,2.5-5.2,2.5c-0.5,0-0.9-0.1-1.3-0.3
				c-0.4-0.2-0.7-0.5-1-0.8c-0.3-0.3-0.5-0.7-0.6-1.1c-0.2-0.4-0.2-0.9-0.2-1.3c0-0.7,0.1-1.4,0.4-2c0.3-0.6,0.7-1.1,1.4-1.6
				c0.6-0.5,1.5-1,2.6-1.4c1.1-0.5,2.4-0.9,3.9-1.4v-2c0-1.9-0.8-2.8-2.5-2.8c-0.6,0-1.1,0.1-1.6,0.4c-0.5,0.3-0.7,0.7-0.7,1.2
				c0,0.1,0,0.3,0.1,0.6c0,0.3,0.1,0.5,0.1,0.6c0,0.4-0.2,0.8-0.5,1c-0.3,0.3-0.7,0.4-1.1,0.4c-0.9,0-1.3-0.5-1.3-1.5
				c0-0.5,0.2-1,0.5-1.5c0.3-0.5,0.8-0.9,1.3-1.2c0.5-0.3,1.1-0.6,1.8-0.8c0.7-0.2,1.3-0.3,2-0.3c1.5,0,2.7,0.4,3.6,1.2
				c0.8,0.8,1.3,2,1.3,3.5v7.6c0,0.9,0.2,1.3,0.7,1.3c0.4,0,1-0.3,1.7-0.8V69.1z M539.5,61.8c-2,0.6-3.2,1.1-3.6,1.3
				c-1.2,0.7-1.7,1.7-1.7,3.1c0,0.7,0.2,1.3,0.6,1.9c0.4,0.5,0.9,0.8,1.6,0.8c0.9,0,1.9-0.4,3.1-1.3V61.8z"/>
			<path class="st10" d="M545.4,70.6V70c0.6,0,1,0,1.4-0.1c0.3-0.1,0.6-0.2,0.8-0.5c0.2-0.2,0.3-0.5,0.4-0.9
				c0.1-0.4,0.1-0.9,0.1-1.4V51.5c0-0.4,0-0.7-0.1-0.9c0-0.2-0.1-0.4-0.3-0.5c-0.2-0.1-0.4-0.2-0.8-0.2c-0.3,0-0.8,0-1.5,0v-0.6
				l5.4-1.5v19.1c0,0.7,0,1.3,0.1,1.7c0.1,0.4,0.2,0.8,0.4,1c0.2,0.2,0.5,0.4,0.8,0.4c0.3,0.1,0.8,0.1,1.3,0.1v0.6H545.4z"/>
			<path class="st10" d="M567.8,65.3c-1.4,3.7-3.8,5.6-7.1,5.6c-1,0-1.8-0.2-2.6-0.6c-0.8-0.4-1.4-1-2-1.6s-1-1.5-1.3-2.4
				c-0.3-0.9-0.5-1.9-0.5-2.9c0-1.1,0.2-2.1,0.5-3c0.3-1,0.8-1.8,1.4-2.6c0.6-0.7,1.3-1.3,2.2-1.8c0.9-0.4,1.8-0.7,2.9-0.7
				c1.8,0,3.3,0.6,4.3,1.7c1,1.1,1.5,2.6,1.6,4.5h-10.5c0,1,0.1,1.9,0.4,2.8c0.3,0.9,0.6,1.6,1.1,2.3c0.5,0.6,1,1.2,1.7,1.5
				c0.7,0.4,1.4,0.6,2.2,0.6c2.1,0,3.8-1.2,5.2-3.6L567.8,65.3z M563.9,59.8v-0.2c0-0.9-0.3-1.7-1-2.3c-0.6-0.6-1.5-0.9-2.5-0.9
				c-2,0-3.3,1.3-3.8,3.8h7.3V59.8z"/>
			<path class="st10" d="M574.2,66.8c0,0.7,0,1.3,0.1,1.7c0.1,0.4,0.2,0.8,0.4,1c0.2,0.2,0.5,0.4,0.8,0.4c0.3,0.1,0.8,0.1,1.3,0.1
				v0.6h-8.1V70c0.6,0,1,0,1.3-0.1c0.3-0.1,0.6-0.2,0.8-0.4c0.2-0.2,0.3-0.5,0.4-1c0.1-0.4,0.1-1,0.1-1.7v-7.1c0-1.3-0.4-2-1.1-2
				c-0.3,0-0.8,0.1-1.5,0.3v-0.7l5.4-1.9V66.8z M574.5,49.3c0,0.4-0.2,0.9-0.5,1.2c-0.4,0.4-0.8,0.5-1.2,0.5c-0.4,0-0.8-0.2-1.2-0.5
				c-0.3-0.3-0.5-0.7-0.5-1.1c0-0.4,0.2-0.9,0.5-1.2c0.4-0.4,0.8-0.5,1.2-0.5c0.4,0,0.8,0.2,1.2,0.5
				C574.3,48.6,574.5,48.9,574.5,49.3z"/>
			<path class="st10" d="M590.9,66.9c0,1.1,0.4,1.7,1.3,1.7h0.6c0.2,0,0.3,0,0.5-0.1c0.1,0,0.2,0,0.3,0v0.6c-2.1,0.4-3.9,1.1-5.4,2
				v-2.5c-1,1.6-2.4,2.4-4.2,2.4c-0.9,0-1.7-0.2-2.4-0.6c-0.7-0.4-1.4-0.9-1.9-1.6c-0.5-0.7-0.9-1.4-1.2-2.3
				c-0.3-0.9-0.4-1.8-0.4-2.8c0-1,0.2-2,0.5-3c0.3-1,0.8-1.9,1.4-2.7c0.6-0.8,1.3-1.5,2.2-2c0.8-0.5,1.8-0.8,2.8-0.8
				c1.3,0,2.4,0.4,3.4,1.3v-5c0-0.9-0.2-1.5-0.7-1.6h-1.9v-0.6l5.4-1.5V66.9z M588.1,59.1c0-0.1-0.1-0.3-0.2-0.7
				c-0.6-1.5-1.6-2.2-3-2.2c-0.7,0-1.3,0.2-1.8,0.5c-0.5,0.3-1,0.8-1.3,1.4s-0.6,1.2-0.8,2c-0.2,0.8-0.3,1.6-0.3,2.5
				c0,1,0.1,1.9,0.3,2.7c0.2,0.8,0.5,1.5,0.8,2.1c0.4,0.6,0.8,1,1.4,1.3c0.5,0.3,1.1,0.5,1.8,0.5c1.5,0,2.5-0.7,3-2.2V59.1z"/>
			<path class="st10" d="M594.7,63.3c0-1.1,0.2-2.1,0.6-3.1c0.4-1,0.9-1.8,1.6-2.6c0.7-0.7,1.5-1.3,2.4-1.8c0.9-0.4,1.9-0.7,3-0.7
				c1.1,0,2.1,0.2,3,0.6c0.9,0.4,1.7,1,2.3,1.6c0.6,0.7,1.1,1.5,1.5,2.4c0.3,0.9,0.5,1.9,0.5,3c0,1.1-0.2,2.1-0.6,3.1
				c-0.4,1-0.9,1.8-1.5,2.6c-0.7,0.7-1.5,1.3-2.4,1.7c-0.9,0.4-1.9,0.7-3,0.7c-1.1,0-2.1-0.2-3-0.6c-0.9-0.4-1.7-0.9-2.3-1.6
				c-0.6-0.7-1.1-1.5-1.5-2.4C594.9,65.3,594.7,64.4,594.7,63.3z M606.5,63.8c0-1-0.1-2-0.3-2.9c-0.2-0.9-0.5-1.7-0.9-2.4
				c-0.4-0.7-0.9-1.2-1.5-1.6c-0.6-0.4-1.3-0.6-2-0.6c-1.3,0-2.3,0.5-3,1.6c-0.7,1.1-1,2.5-1,4.3c0,1,0.1,2,0.3,2.9
				c0.2,0.9,0.5,1.7,0.9,2.4c0.4,0.7,0.9,1.2,1.5,1.6c0.6,0.4,1.3,0.6,2,0.6c1.3,0,2.3-0.5,3-1.6C606.2,67.1,606.5,65.6,606.5,63.8z
				"/>
			<path class="st10" d="M622.1,66.5c0,0.7-0.1,1.3-0.4,1.9c-0.3,0.5-0.6,1-1.1,1.4c-0.5,0.4-1,0.7-1.6,0.9c-0.6,0.2-1.3,0.3-2,0.3
				c-0.2,0-0.4,0-0.7-0.1c-0.3-0.1-0.6-0.2-1-0.3c-0.4-0.1-0.7-0.2-1-0.3c-0.3-0.1-0.6-0.1-0.7-0.1c-0.4,0-0.6,0.2-0.7,0.5h-0.6
				v-5.3h0.6c0,0.6,0.1,1.2,0.3,1.8c0.2,0.6,0.5,1.1,0.9,1.5c0.4,0.4,0.9,0.8,1.4,1c0.5,0.3,1.1,0.4,1.7,0.4c0.8,0,1.4-0.2,1.9-0.6
				c0.5-0.4,0.8-1,0.8-1.7c0-0.5-0.2-1-0.6-1.5c-0.4-0.4-0.9-0.8-1.4-1.2c-0.6-0.4-1.2-0.8-1.8-1.1c-0.7-0.4-1.3-0.8-1.8-1.2
				c-0.6-0.4-1-0.9-1.4-1.4c-0.4-0.5-0.6-1.1-0.6-1.8c0-0.6,0.1-1.2,0.4-1.7c0.3-0.5,0.6-0.9,1.1-1.3c0.4-0.4,1-0.7,1.5-0.9
				c0.6-0.2,1.2-0.3,1.8-0.3c0.2,0,0.4,0,0.7,0.1c0.3,0.1,0.6,0.2,0.9,0.3c0.3,0.1,0.6,0.2,0.9,0.3c0.3,0.1,0.5,0.1,0.6,0.1
				c0.3,0,0.5-0.1,0.5-0.4v-0.1h0.6v4.6h-0.6c0-0.5-0.1-1-0.4-1.7c-0.4-0.9-0.9-1.6-1.4-1.9c-0.5-0.3-1.2-0.5-1.9-0.5
				c-0.7,0-1.3,0.2-1.8,0.6c-0.5,0.4-0.7,0.9-0.7,1.6c0,0.9,0.6,1.8,1.9,2.6c0.7,0.4,1.5,0.8,2.2,1.2c0.7,0.4,1.3,0.8,1.9,1.2
				c0.5,0.4,1,0.9,1.3,1.4C622,65.2,622.1,65.8,622.1,66.5z"/>
			<path class="st10" d="M636,67.6c-0.4,0.7-0.9,1.3-1.5,1.8c-0.6,0.5-1.2,0.9-1.9,1.2c-0.7,0.3-1.4,0.4-2.2,0.4
				c-0.9,0-1.8-0.2-2.6-0.6c-0.8-0.4-1.4-0.9-2-1.6c-0.5-0.7-1-1.5-1.3-2.4c-0.3-0.9-0.5-1.9-0.5-3c0-1.1,0.2-2.1,0.6-3.1
				c0.4-1,0.9-1.8,1.6-2.6c0.7-0.7,1.5-1.3,2.4-1.8c0.9-0.4,2-0.7,3.1-0.7c0.6,0,1.2,0.1,1.8,0.3c0.6,0.2,1.1,0.4,1.6,0.7
				c0.5,0.3,0.9,0.7,1.1,1.1c0.3,0.4,0.4,0.9,0.4,1.4c0,1-0.5,1.5-1.5,1.5c-0.8,0-1.3-0.4-1.5-1.2c-0.1-0.6-0.3-1.2-0.5-1.5
				c-0.2-0.4-0.4-0.6-0.6-0.8c-0.2-0.2-0.5-0.3-0.8-0.4c-0.3-0.1-0.6-0.1-1-0.1c-0.6,0-1.2,0.2-1.7,0.5c-0.5,0.3-1,0.7-1.4,1.3
				c-0.4,0.5-0.7,1.2-0.9,1.9c-0.2,0.7-0.3,1.5-0.3,2.3c0,0.9,0.1,1.7,0.4,2.4c0.2,0.8,0.6,1.4,1,2c0.4,0.6,1,1,1.6,1.4
				c0.6,0.3,1.3,0.5,2,0.5c1.1,0,2-0.3,2.9-0.9c0.9-0.6,1.5-1.4,1.9-2.4l0.5,0.3C636.8,66.2,636.4,66.9,636,67.6z"/>
			<path class="st10" d="M638.8,63.3c0-1.1,0.2-2.1,0.6-3.1c0.4-1,0.9-1.8,1.6-2.6c0.7-0.7,1.5-1.3,2.4-1.8c0.9-0.4,1.9-0.7,3-0.7
				c1.1,0,2.1,0.2,3,0.6c0.9,0.4,1.7,1,2.3,1.6c0.6,0.7,1.1,1.5,1.5,2.4c0.3,0.9,0.5,1.9,0.5,3c0,1.1-0.2,2.1-0.6,3.1
				c-0.4,1-0.9,1.8-1.5,2.6c-0.7,0.7-1.5,1.3-2.4,1.7c-0.9,0.4-1.9,0.7-3,0.7c-1.1,0-2.1-0.2-3-0.6c-0.9-0.4-1.7-0.9-2.3-1.6
				c-0.6-0.7-1.1-1.5-1.5-2.4C639,65.3,638.8,64.4,638.8,63.3z M650.6,63.8c0-1-0.1-2-0.3-2.9c-0.2-0.9-0.5-1.7-0.9-2.4
				c-0.4-0.7-0.9-1.2-1.5-1.6c-0.6-0.4-1.3-0.6-2-0.6c-1.3,0-2.3,0.5-3,1.6c-0.7,1.1-1,2.5-1,4.3c0,1,0.1,2,0.3,2.9
				c0.2,0.9,0.5,1.7,0.9,2.4c0.4,0.7,0.9,1.2,1.5,1.6c0.6,0.4,1.3,0.6,2,0.6c1.3,0,2.3-0.5,3-1.6C650.3,67.1,650.6,65.6,650.6,63.8z
				"/>
			<path class="st10" d="M660.3,55.2v2.6c1.3-1.7,2.9-2.6,4.8-2.6c0.8,0,1.6,0.2,2.3,0.6c0.7,0.4,1.2,0.9,1.7,1.5
				c0.5,0.6,0.8,1.4,1.1,2.3c0.2,0.9,0.4,1.8,0.4,2.9c0,1.3-0.2,2.5-0.6,3.6c-0.4,1.1-1,1.9-1.6,2.7c-0.7,0.7-1.4,1.3-2.2,1.7
				c-0.8,0.4-1.6,0.6-2.4,0.6c-1.2,0-2.3-0.5-3.3-1.4v4.5c0,0.7,0,1.3,0.1,1.7c0.1,0.4,0.2,0.8,0.4,1c0.2,0.2,0.5,0.4,0.8,0.4
				c0.3,0.1,0.8,0.1,1.3,0.1v0.6h-8.1v-0.6c0.6,0,1,0,1.3-0.1c0.3-0.1,0.6-0.2,0.8-0.4c0.2-0.2,0.3-0.5,0.4-1c0.1-0.4,0.1-1,0.1-1.7
				V58.8c0-0.8-0.3-1.3-0.8-1.5h-1.8v-0.6L660.3,55.2z M663.5,57.2c-1.2,0-2.3,0.6-3.2,1.7V68c1,1.2,2,1.7,3.2,1.7
				c0.6,0,1.2-0.2,1.7-0.5s0.9-0.8,1.3-1.4c0.3-0.6,0.6-1.3,0.8-2.1c0.2-0.8,0.3-1.7,0.3-2.6c0-1.8-0.3-3.3-1-4.4
				C665.9,57.7,664.8,57.2,663.5,57.2z"/>
			<path class="st10" d="M685.6,65.3c-1.4,3.7-3.8,5.6-7.1,5.6c-1,0-1.8-0.2-2.6-0.6c-0.8-0.4-1.4-1-2-1.6c-0.5-0.7-1-1.5-1.3-2.4
				c-0.3-0.9-0.5-1.9-0.5-2.9c0-1.1,0.2-2.1,0.5-3c0.3-1,0.8-1.8,1.4-2.6c0.6-0.7,1.3-1.3,2.2-1.8c0.9-0.4,1.8-0.7,2.9-0.7
				c1.8,0,3.3,0.6,4.3,1.7c1,1.1,1.5,2.6,1.6,4.5h-10.5c0,1,0.1,1.9,0.4,2.8c0.3,0.9,0.6,1.6,1.1,2.3c0.5,0.6,1,1.2,1.7,1.5
				c0.7,0.4,1.4,0.6,2.2,0.6c2.1,0,3.8-1.2,5.2-3.6L685.6,65.3z M681.8,59.8v-0.2c0-0.9-0.3-1.7-1-2.3c-0.6-0.6-1.5-0.9-2.5-0.9
				c-2,0-3.3,1.3-3.8,3.8h7.3V59.8z"/>
		</g>
		<line class="st11" x1="530.1" y1="46.4" x2="506.9" y2="66.6"/>
		<line class="st11" x1="533.4" y1="53.6" x2="548.4" y2="80"/>
		<line class="st11" x1="549.4" y1="72.7" x2="549.4" y2="44.6"/>
		<line class="st11" x1="569" y1="61.4" x2="553.2" y2="61.3"/>
		<line class="st11" x1="576" y1="47.1" x2="570.5" y2="51.4"/>
		<line class="st11" x1="574.2" y1="55.3" x2="569.9" y2="74.5"/>
		<line class="st11" x1="587.6" y1="55.4" x2="588.1" y2="71.1"/>
		<line class="st11" x1="596.2" y1="54.7" x2="607.6" y2="75.4"/>
		<line class="st11" x1="610.9" y1="58.5" x2="623.4" y2="67.5"/>
		<line class="st11" x1="633.9" y1="60.2" x2="630.9" y2="50.1"/>
		<line class="st11" x1="636.8" y1="64.2" x2="632" y2="72.9"/>
		<line class="st11" x1="652.8" y1="54.1" x2="638.5" y2="74"/>
		<line class="st11" x1="663.1" y1="53.9" x2="656.1" y2="63.5"/>
		<line class="st11" x1="664" y1="71.8" x2="656.5" y2="67.2"/>
		<line class="st11" x1="685.2" y1="63.3" x2="680" y2="75.8"/>
		<line class="st11" x1="673.8" y1="53.9" x2="675.6" y2="72.1"/>
		<line class="st11" x1="584.4" y1="50.1" x2="597.3" y2="49.5"/>
		<line class="st11" x1="592.3" y1="67.2" x2="584.4" y2="74.7"/>
		<line class="st11" x1="610.9" y1="69.2" x2="628.7" y2="71.6"/>
		<line class="st11" x1="620.8" y1="61.1" x2="618.6" y2="50.6"/>
		<line class="st11" x1="563.5" y1="63.7" x2="564" y2="51.2"/>
		<line class="st11" x1="527.6" y1="64.6" x2="545.8" y2="58.9"/>
	</g>
	<rect x="693" y="551.6" class="st12" width="170.2" height="48.8"/>
	<text transform="matrix(1 0 0 1 692.9628 564.6271)"><tspan x="0" y="0" class="st10 st13 st14">and other stories </tspan><tspan x="0" y="21.6" class="st10 st13 st14">by Ray Bradbury</tspan></text>
	<g>
		<text transform="matrix(1 0 0 1 342.8049 620.8668)" class="st15 st16">918502</text>
		<text transform="matrix(1 0 0 1 299.7034 620.8434)" class="st15 st16">780997</text>
		<text transform="matrix(1 0 0 1 287.9534 620.8434)" class="st15 st16">9</text>
		<path class="st17" d="M295.6,616.9v-5v-72 M295.6,611.9 M297.5,616.9v-5v-72 M297.5,611.9"/>
		<path class="st18" d="M300.3,611.9v-72 M300.3,611.9"/>
		<path class="st19" d="M303.6,611.9v-72 M303.6,611.9"/>
		<path class="st17" d="M307.8,611.9v-72 M307.8,611.9 M310.6,611.9v-72 M310.6,611.9 M312.5,611.9v-72 M312.5,611.9"/>
		<path class="st18" d="M316.2,611.9v-72 M316.2,611.9"/>
		<path class="st17" d="M320.9,611.9v-72 M320.9,611.9"/>
		<path class="st19" d="M323.2,611.9v-72 M323.2,611.9"/>
		<path class="st17" d="M326.5,611.9v-72 M326.5,611.9"/>
		<path class="st18" d="M329.3,611.9v-72 M329.3,611.9 M333.1,611.9v-72 M333.1,611.9"/>
		<path class="st19" d="M336.3,611.9v-72 M336.3,611.9"/>
		<path class="st17" d="M338.7,616.9v-5v-72 M338.7,611.9 M340.6,616.9v-5v-72 M340.6,611.9"/>
		<path class="st18" d="M343.4,611.9v-72 M343.4,611.9"/>
		<path class="st17" d="M346.2,611.9v-72 M346.2,611.9"/>
		<path class="st19" d="M349.4,611.9v-72 M349.4,611.9 M353.2,611.9v-72 M353.2,611.9"/>
		<path class="st17" d="M355.5,611.9v-72 M355.5,611.9 M358.3,611.9v-72 M358.3,611.9 M362.1,611.9v-72 M362.1,611.9"/>
		<path class="st18" d="M365.8,611.9v-72 M365.8,611.9 M369.6,611.9v-72 M369.6,611.9"/>
		<path class="st17" d="M373.3,611.9v-72 M373.3,611.9"/>
		<path class="st19" d="M375.7,611.9v-72 M375.7,611.9 M378.5,611.9v-72 M378.5,611.9"/>
		<path class="st17" d="M381.7,616.9v-5v-72 M381.7,611.9 M383.6,616.9v-5v-72 M383.6,611.9"/>
		<text transform="matrix(1 0 0 1 384.0706 611.9371)" class="st15 st16"> </text>
		<text transform="matrix(1 0 0 1 295.9846 537.9371)" class="st15 st20">ISBN 9780997918502</text>
		<path class="st11" d="M295.2,611.9"/>
	</g>
</g>
<g id="Layer_9">
	<g>
		<path class="st10" d="M443.2,32.1c-0.2,0-0.3,0-0.3-0.1c0-0.4,0-0.9,0.1-1.4c0-0.5,0.1-1,0.1-1.4c0-0.4,0-0.8-0.1-1.5
			c0-0.7-0.1-1.2-0.1-1.6c0-0.1,0.1-0.1,0.3-0.1c0.2,0,0.2,0,0.2,0.1c0.1,0.8,0.3,1.2,0.6,1.2c0.2,0,0.4-0.1,0.6-0.4l3.6-3.6
			c0.2-0.2,0.3-0.4,0.4-0.5c0.1-0.1,0.1-0.3,0.1-0.6H445c-0.4,0-0.7,0.1-0.9,0.2s-0.3,0.3-0.4,0.6c-0.1,0.3-0.2,0.6-0.2,1.1
			c0,0.1-0.1,0.2-0.2,0.2c-0.2,0-0.3,0-0.3-0.1c0-0.4,0-0.9,0.1-1.4c0-0.5,0.1-1,0.1-1.4c0-0.4,0-0.8-0.1-1.3c0-0.6-0.1-1-0.1-1.4
			c0-0.1,0.1-0.1,0.3-0.1c0.2,0,0.2,0,0.2,0.1c0.1,0.7,0.2,1.2,0.4,1.5c0.2,0.3,0.6,0.4,1.1,0.4h8.5c0.4,0,0.7-0.1,0.9-0.2
			c0.2-0.1,0.3-0.3,0.4-0.6c0.1-0.3,0.2-0.7,0.2-1.2c0-0.1,0.1-0.1,0.2-0.1s0.2,0,0.2,0.1c0,0.4,0,0.9-0.1,1.4c0,0.5-0.1,1-0.1,1.3
			c0,0.4,0,0.8,0.1,1.4c0,0.6,0.1,1,0.1,1.4c0,0.1-0.1,0.1-0.2,0.1s-0.2,0-0.2-0.1c-0.1-0.5-0.1-0.9-0.2-1.2
			c-0.1-0.3-0.2-0.4-0.4-0.6s-0.5-0.2-0.9-0.2h-4.1c0,0.2,0,0.4,0.1,0.6c0.1,0.1,0.2,0.3,0.4,0.5l3.9,4c0.3,0.3,0.5,0.5,0.7,0.5
			c0.2,0,0.3-0.1,0.4-0.2c0.1-0.2,0.2-0.5,0.2-0.9c0-0.1,0.1-0.1,0.2-0.1s0.2,0.1,0.2,0.2c0,0.3,0,0.7-0.1,1.1
			c0,0.5-0.1,0.9-0.1,1.2c0,0.3,0,0.7,0.1,1.1c0,0.3,0,0.6,0,0.8c0,0.1-0.1,0.1-0.2,0.1s-0.2,0-0.2-0.1c-0.1-0.6-0.2-1-0.4-1.4
			c-0.2-0.3-0.5-0.7-0.9-1.2l-3.9-4.1l-5.2,5.1c-0.4,0.4-0.6,0.7-0.8,1.1s-0.3,0.9-0.4,1.5C443.5,32,443.4,32.1,443.2,32.1z"/>
		<path class="st10" d="M442.8,38.2c0-0.3,0.1-0.6,0.2-0.9s0.4-0.4,0.7-0.5c-0.7-0.6-1-1.5-1-2.5c0-0.5,0.2-1,0.5-1.3
			c0.3-0.3,0.7-0.5,1.2-0.5c1.2,0,2.2,1.5,3,4.4l1.4,0.1h0c0.4,0,0.8-0.1,1-0.3c0.3-0.2,0.4-0.5,0.4-0.9s-0.1-0.7-0.3-0.9
			c-0.2-0.2-0.4-0.4-0.6-0.4c-0.4,0-0.7-0.1-0.9-0.3c-0.2-0.2-0.3-0.5-0.3-0.8c0-0.2,0.1-0.3,0.2-0.5c0.1-0.1,0.3-0.2,0.5-0.2
			c0.5,0,0.9,0.4,1.5,1.3c0.5,0.8,0.8,1.6,0.8,2.3c0,0.6-0.2,1.2-0.6,1.6c-0.4,0.4-0.9,0.6-1.5,0.6h-0.1l-4.1-0.1h-0.1
			c-0.6,0-0.9,0.2-0.9,0.6c0,0.2,0.1,0.4,0.4,0.7l0,0.1c0,0,0,0.1-0.1,0.1c-0.1,0-0.1,0.1-0.2,0.1c-0.2,0-0.4-0.2-0.6-0.5
			C442.9,39.1,442.8,38.7,442.8,38.2z M446.9,36.9c-0.4-1.7-1.1-2.6-2-2.6c-0.9,0-1.3,0.3-1.3,1c0,0.3,0.1,0.6,0.2,0.9
			c0.2,0.3,0.4,0.5,0.6,0.6L446.9,36.9z"/>
		<path class="st10" d="M443.3,44.4c-0.2,0-0.3,0-0.3-0.1c0-0.2,0-0.6,0-0.9c0-0.4,0-0.8,0-1.1c0-0.3,0-0.6,0-1.1c0-0.4,0-0.7,0-0.9
			c0-0.1,0.1-0.1,0.3-0.1c0.1,0,0.2,0,0.2,0.1c0.1,0.5,0.2,0.8,0.4,1c0.2,0.2,0.6,0.2,1.2,0.2h8.4c0.5,0,0.8-0.1,1-0.2
			c0.1-0.1,0.2-0.4,0.3-0.8c0-0.1,0.1-0.1,0.2-0.1c0.1,0,0.2,0,0.2,0.1c0.2,0.6,0.3,1.1,0.5,1.5c0.2,0.4,0.3,0.7,0.5,0.8
			c0.1,0.1,0.1,0.1,0.1,0.2c0,0.2,0,0.3-0.1,0.3c-1.3-0.1-2.4-0.1-3.1-0.1H445c-0.6,0-1,0.1-1.2,0.2c-0.2,0.1-0.3,0.5-0.4,1
			C443.5,44.4,443.4,44.4,443.3,44.4z"/>
		<path class="st10" d="M448.1,52.3c-0.2,0-0.3-0.1-0.3-0.3V47c-0.3,0-0.7-0.1-1-0.1c-1,0-1.7,0.2-2.2,0.7c-0.5,0.5-0.8,1.1-0.8,2
			c0,0.4,0.1,0.9,0.3,1.3c0.2,0.4,0.5,0.8,0.9,1l0,0c0,0.1,0,0.1-0.1,0.2c-0.1,0.1-0.1,0.1-0.2,0.1c-0.1,0-0.4-0.2-0.8-0.6
			c-0.4-0.4-0.7-0.8-0.9-1.3s-0.3-0.9-0.3-1.4c0-1.1,0.4-2,1.2-2.7c0.8-0.7,1.8-1.1,2.9-1.1c1.2,0,2.2,0.4,3,1.1
			c0.8,0.7,1.2,1.6,1.2,2.7c0,0.9-0.3,1.7-0.9,2.3C449.5,51.9,448.8,52.3,448.1,52.3z M448.9,50.6c0.5,0,0.8-0.2,1.1-0.5
			c0.3-0.3,0.4-0.7,0.4-1.2c0-0.5-0.2-0.9-0.6-1.2c-0.4-0.3-0.9-0.6-1.5-0.7l0.1,2.5c0,0.4,0,0.6,0.1,0.8
			C448.6,50.5,448.7,50.6,448.9,50.6z"/>
		<path class="st10" d="M443.2,57.7c-0.2,0-0.3,0-0.3-0.1c0-0.2,0-0.6,0.1-0.9c0-0.4,0.1-0.8,0.1-1.1c0-0.3,0-0.7-0.1-1.1
			c0-0.4-0.1-0.7-0.1-0.9c0-0.1,0.1-0.1,0.3-0.1c0.2,0,0.2,0,0.2,0.1c0.1,0.5,0.2,0.8,0.4,1s0.6,0.2,1.1,0.2h3.3
			c0.5,0,0.8-0.1,0.9-0.2c0.1-0.1,0.2-0.4,0.3-0.8c0-0.1,0.1-0.1,0.2-0.1c0.1,0,0.2,0,0.2,0.1c0.2,0.6,0.3,1.1,0.5,1.5
			c0.2,0.4,0.3,0.7,0.5,0.8c0.1,0.1,0.1,0.1,0.1,0.2c0,0.2,0,0.3-0.1,0.3c-1.3-0.1-2.4-0.1-3.1-0.1H445c-0.6,0-1,0.1-1.2,0.2
			c-0.2,0.1-0.3,0.5-0.4,1C443.5,57.7,443.4,57.7,443.2,57.7z M454.1,56.5c-0.3,0-0.5-0.1-0.7-0.3c-0.2-0.2-0.3-0.4-0.3-0.7
			c0-0.3,0.1-0.5,0.3-0.7c0.2-0.2,0.4-0.3,0.7-0.3c0.3,0,0.5,0.1,0.7,0.3c0.2,0.2,0.3,0.4,0.3,0.7c0,0.3-0.1,0.5-0.3,0.7
			C454.6,56.4,454.4,56.5,454.1,56.5z"/>
		<path class="st10" d="M443.6,67.6c-0.1,0-0.2,0-0.2-0.1c0-0.3-0.1-0.7-0.3-1.2c-0.1-0.5-0.3-0.8-0.4-1.1c-0.1-0.1-0.1-0.2-0.1-0.3
			c0-0.1,0-0.1,0.1-0.1l1,0.1c-0.7-0.6-1-1.4-1-2.4c0-1,0.4-1.9,1.2-2.7c0.8-0.7,1.8-1.1,2.9-1.1c1.3,0,2.3,0.4,3.1,1.2
			c0.8,0.8,1.2,1.8,1.2,3c0,0.7-0.2,1.3-0.6,1.9h3c0.5,0,0.8-0.1,1-0.2s0.2-0.4,0.3-0.8c0-0.1,0.1-0.1,0.2-0.1c0.2,0,0.2,0,0.2,0.1
			c0.1,0.6,0.3,1.1,0.5,1.5c0.2,0.4,0.4,0.7,0.5,0.8c0.1,0.1,0.1,0.1,0.1,0.2c0,0.2,0,0.3-0.1,0.3c-1.3-0.1-2.4-0.1-3.1-0.1H445
			c-0.4,0-0.7,0.1-0.8,0.2s-0.2,0.4-0.3,0.8C443.8,67.6,443.8,67.6,443.6,67.6z M444.6,64.9h4.6c0.3,0,0.6-0.2,0.9-0.5
			c0.3-0.4,0.4-0.8,0.4-1.2c0-1.8-1.2-2.6-3.7-2.6c-1,0-1.8,0.2-2.4,0.6s-1,1-1,1.7c0,0.4,0.1,0.7,0.3,1.1
			C443.8,64.2,444.1,64.5,444.6,64.9z"/>
		<path class="st10" d="M446.8,76.7c-1.2,0-2.2-0.4-2.9-1.2c-0.8-0.8-1.2-1.8-1.2-3s0.4-2.2,1.2-3c0.8-0.8,1.8-1.2,2.9-1.2
			c1.2,0,2.2,0.4,3,1.2c0.8,0.8,1.2,1.8,1.2,3c0,1.2-0.4,2.2-1.2,3S448,76.7,446.8,76.7z M446.8,74.9c1.1,0,2-0.2,2.6-0.6
			c0.7-0.4,1-1,1-1.7c0-0.7-0.3-1.3-1-1.7c-0.7-0.4-1.5-0.6-2.6-0.6c-1.1,0-1.9,0.2-2.6,0.6c-0.6,0.4-1,1-1,1.7
			c0,0.7,0.3,1.3,0.9,1.7S445.7,74.9,446.8,74.9z"/>
		<path class="st10" d="M445.3,83.7c-0.7,0-1.3-0.3-1.8-0.9c-0.5-0.6-0.7-1.3-0.7-2.1c0-0.3,0.1-0.7,0.2-1.3
			c0.1-0.4,0.1-0.8,0.1-0.9c0.4,0,1.1-0.2,1.9-0.3c0.1,0,0.1,0.1,0.1,0.3c0,0.1,0,0.2-0.1,0.3c-0.4,0.1-0.8,0.4-1.2,0.8
			c-0.3,0.4-0.5,0.8-0.5,1.3c0,0.5,0.1,0.8,0.4,1c0.2,0.2,0.6,0.4,1,0.4c0.3,0,0.5-0.1,0.7-0.3c0.2-0.2,0.5-0.7,0.8-1.3
			c0.4-0.9,0.8-1.5,1.2-1.8c0.4-0.3,0.8-0.4,1.3-0.4c0.6,0,1.2,0.3,1.6,0.8s0.7,1.2,0.7,1.9c0,0.3-0.1,0.8-0.2,1.3
			c-0.1,0.3-0.1,0.5-0.1,0.6c-0.7,0-1.3,0.1-1.8,0.1c-0.1,0-0.1-0.1-0.1-0.3c0-0.1,0-0.2,0.1-0.3c0.4-0.1,0.8-0.2,1.1-0.5
			c0.3-0.3,0.4-0.6,0.4-0.9c0-0.9-0.4-1.4-1.2-1.4c-0.3,0-0.5,0.1-0.8,0.3c-0.2,0.2-0.5,0.7-0.9,1.4c-0.4,0.9-0.8,1.5-1.2,1.7
			C446.1,83.5,445.7,83.7,445.3,83.7z"/>
		<path class="st10" d="M449.6,91.8c-0.5,0-0.7-0.2-0.7-0.7c0-0.2,0-0.4,0.1-0.5c0.1-0.1,0.3-0.3,0.6-0.4c0.4-0.2,0.6-0.3,0.7-0.5
			s0.2-0.4,0.2-0.7c0-0.7-0.3-1.3-0.9-1.7c-0.6-0.4-1.5-0.6-2.6-0.6c-1,0-1.7,0.2-2.3,0.7s-0.9,1.1-0.9,1.9c0,0.9,0.3,1.6,0.9,2.2
			l0,0c0,0.1,0,0.1-0.1,0.2c-0.1,0.1-0.1,0.1-0.2,0.1c-0.1,0-0.3-0.2-0.6-0.5s-0.5-0.7-0.7-1.2c-0.1-0.4-0.2-0.9-0.2-1.3
			c0-1.1,0.4-2,1.2-2.8c0.8-0.8,1.8-1.1,3-1.1c1.2,0,2.2,0.4,3,1.2c0.8,0.8,1.2,1.8,1.2,2.8c0,0.8-0.1,1.5-0.4,2.1
			S450,91.8,449.6,91.8z"/>
		<path class="st10" d="M446.8,101.4c-1.2,0-2.2-0.4-2.9-1.2c-0.8-0.8-1.2-1.8-1.2-3s0.4-2.2,1.2-3c0.8-0.8,1.8-1.2,2.9-1.2
			c1.2,0,2.2,0.4,3,1.2c0.8,0.8,1.2,1.8,1.2,3c0,1.2-0.4,2.2-1.2,3S448,101.4,446.8,101.4z M446.8,99.6c1.1,0,2-0.2,2.6-0.6
			c0.7-0.4,1-1,1-1.7c0-0.7-0.3-1.3-1-1.7c-0.7-0.4-1.5-0.6-2.6-0.6c-1.1,0-1.9,0.2-2.6,0.6c-0.6,0.4-1,1-1,1.7
			c0,0.7,0.3,1.3,0.9,1.7S445.7,99.6,446.8,99.6z"/>
		<path class="st10" d="M446.8,111.2c-1.2,0-2.2-0.4-2.9-1.2c-0.8-0.8-1.2-1.8-1.2-3.1c0-0.7,0.1-1.3,0.4-1.8h-2.8
			c-0.6,0-1,0.1-1.2,0.2s-0.3,0.5-0.4,1c0,0.1-0.1,0.1-0.2,0.1s-0.2,0-0.2-0.1c0-0.2,0-0.6,0.1-1c0-0.4,0.1-0.8,0.1-1.1
			c0-0.3,0-0.7-0.1-1.1c0-0.4-0.1-0.7-0.1-0.9c0-0.1,0.1-0.1,0.2-0.1s0.2,0,0.2,0.1c0.1,0.5,0.2,0.8,0.4,1c0.2,0.2,0.6,0.2,1.2,0.2
			h8c0.5,0,0.8-0.1,0.9-0.2c0.2-0.1,0.2-0.4,0.3-0.8c0-0.1,0.1-0.1,0.2-0.1c0.1,0,0.2,0,0.2,0.1c0.1,0.6,0.3,1.1,0.5,1.5
			c0.2,0.4,0.3,0.7,0.5,0.8c0.1,0.1,0.1,0.1,0.1,0.2c0,0.2,0,0.3-0.1,0.3l-1.1-0.1c0.3,0.3,0.6,0.7,0.9,1.1c0.2,0.4,0.3,0.8,0.3,1.1
			c0,1.2-0.4,2.1-1.2,2.8C449.1,110.8,448.1,111.2,446.8,111.2z M446.8,109.3c1,0,1.8-0.2,2.3-0.7c0.6-0.4,0.8-1,0.8-1.8
			c0-0.3-0.1-0.6-0.2-0.9c-0.1-0.3-0.4-0.6-0.8-0.9h-4.4c-0.4,0-0.7,0.2-1,0.5s-0.4,0.8-0.4,1.2c0,0.8,0.3,1.4,0.9,1.9
			C444.8,109.1,445.7,109.3,446.8,109.3z"/>
		<path class="st10" d="M448.1,119.7c-0.2,0-0.3-0.1-0.3-0.3v-4.9c-0.3,0-0.7-0.1-1-0.1c-1,0-1.7,0.2-2.2,0.7
			c-0.5,0.5-0.8,1.1-0.8,2c0,0.4,0.1,0.9,0.3,1.3c0.2,0.4,0.5,0.8,0.9,1l0,0c0,0.1,0,0.1-0.1,0.2c-0.1,0.1-0.1,0.1-0.2,0.1
			c-0.1,0-0.4-0.2-0.8-0.6c-0.4-0.4-0.7-0.8-0.9-1.3s-0.3-0.9-0.3-1.4c0-1.1,0.4-2,1.2-2.7c0.8-0.7,1.8-1.1,2.9-1.1
			c1.2,0,2.2,0.4,3,1.1c0.8,0.7,1.2,1.6,1.2,2.7c0,0.9-0.3,1.7-0.9,2.3C449.5,119.3,448.8,119.7,448.1,119.7z M448.9,118
			c0.5,0,0.8-0.2,1.1-0.5c0.3-0.3,0.4-0.7,0.4-1.2c0-0.5-0.2-0.9-0.6-1.2c-0.4-0.3-0.9-0.6-1.5-0.7l0.1,2.5c0,0.4,0,0.6,0.1,0.8
			C448.6,117.9,448.7,118,448.9,118z"/>
		<path class="st10" d="M442.8,377.6c0-0.3,0.1-0.6,0.2-0.9c0.2-0.2,0.4-0.4,0.7-0.5c-0.7-0.6-1-1.5-1-2.5c0-0.5,0.2-1,0.5-1.3
			s0.7-0.5,1.2-0.5c1.2,0,2.2,1.5,3,4.4l1.4,0.1h0c0.4,0,0.8-0.1,1-0.3c0.3-0.2,0.4-0.5,0.4-0.9c0-0.4-0.1-0.7-0.3-0.9
			c-0.2-0.2-0.4-0.4-0.6-0.4c-0.4,0-0.7-0.1-0.9-0.3s-0.3-0.5-0.3-0.8c0-0.2,0.1-0.3,0.2-0.5c0.1-0.1,0.3-0.2,0.5-0.2
			c0.5,0,0.9,0.4,1.5,1.3c0.5,0.8,0.8,1.6,0.8,2.3c0,0.6-0.2,1.2-0.6,1.6c-0.4,0.4-0.9,0.6-1.5,0.6h-0.1l-4.1-0.1h-0.1
			c-0.6,0-0.9,0.2-0.9,0.6c0,0.2,0.1,0.4,0.4,0.7l0,0.1c0,0,0,0.1-0.1,0.1c-0.1,0-0.1,0.1-0.2,0.1c-0.2,0-0.4-0.2-0.6-0.5
			S442.8,378,442.8,377.6z M446.9,376.2c-0.4-1.7-1.1-2.6-2-2.6c-0.9,0-1.3,0.3-1.3,1c0,0.3,0.1,0.6,0.2,0.9s0.4,0.5,0.6,0.6
			L446.9,376.2z"/>
		<path class="st10" d="M443.2,388.9c-0.2,0-0.3,0-0.3-0.1c0-0.2,0-0.5,0.1-0.9c0-0.4,0.1-0.7,0.1-1c0-0.3,0-0.6-0.1-1
			c0-0.4-0.1-0.6-0.1-0.9c0-0.1,0.1-0.1,0.3-0.1c0.2,0,0.2,0,0.2,0.1c0,0.4,0.2,0.7,0.4,0.8c0.2,0.1,0.6,0.2,1.2,0.2h3
			c0.7,0,1.2-0.1,1.5-0.4c0.3-0.3,0.5-0.7,0.5-1.2c0-0.3-0.1-0.7-0.2-0.9c-0.1-0.3-0.4-0.6-0.7-0.9h-4c-0.6,0-1,0.1-1.2,0.2
			c-0.2,0.1-0.3,0.4-0.4,0.8c0,0.1-0.1,0.1-0.2,0.1c-0.2,0-0.3,0-0.3-0.1c0-0.2,0-0.5,0.1-0.9c0-0.4,0.1-0.7,0.1-1
			c0-0.3,0-0.6-0.1-1c0-0.4-0.1-0.7-0.1-0.9c0-0.1,0.1-0.1,0.3-0.1c0.2,0,0.2,0,0.2,0.1c0.1,0.5,0.2,0.8,0.4,1
			c0.2,0.1,0.6,0.2,1.1,0.2h3.3c0.5,0,0.8-0.1,0.9-0.2c0.1-0.1,0.2-0.4,0.3-0.8c0-0.1,0.1-0.1,0.2-0.1c0.1,0,0.2,0,0.2,0.1
			c0.2,0.6,0.3,1.1,0.5,1.5c0.2,0.4,0.3,0.6,0.5,0.7c0.1,0.1,0.1,0.1,0.1,0.2c0,0.2,0,0.3-0.1,0.3l-1.1-0.1c0.8,0.9,1.2,1.7,1.2,2.4
			c0,0.8-0.2,1.5-0.7,1.9c-0.5,0.5-1.1,0.7-1.9,0.7H445c-0.6,0-1,0.1-1.2,0.2c-0.2,0.1-0.3,0.5-0.4,1
			C443.5,388.9,443.4,388.9,443.2,388.9z"/>
		<path class="st10" d="M443.6,398.7c-0.1,0-0.2,0-0.2-0.1c0-0.3-0.1-0.7-0.3-1.2c-0.1-0.5-0.3-0.8-0.4-1.1
			c-0.1-0.1-0.1-0.2-0.1-0.3c0-0.1,0-0.1,0.1-0.1l1,0.1c-0.7-0.6-1-1.4-1-2.4c0-1,0.4-1.9,1.2-2.7c0.8-0.7,1.8-1.1,2.9-1.1
			c1.3,0,2.3,0.4,3.1,1.2c0.8,0.8,1.2,1.8,1.2,3c0,0.7-0.2,1.3-0.6,1.9h3c0.5,0,0.8-0.1,1-0.2s0.2-0.4,0.3-0.8
			c0-0.1,0.1-0.1,0.2-0.1c0.2,0,0.2,0,0.2,0.1c0.1,0.6,0.3,1.1,0.5,1.5c0.2,0.4,0.4,0.7,0.5,0.8c0.1,0.1,0.1,0.1,0.1,0.2
			c0,0.2,0,0.3-0.1,0.3c-1.3-0.1-2.4-0.1-3.1-0.1H445c-0.4,0-0.7,0.1-0.8,0.2s-0.2,0.4-0.3,0.8C443.8,398.6,443.8,398.7,443.6,398.7
			z M444.6,395.9h4.6c0.3,0,0.6-0.2,0.9-0.5c0.3-0.4,0.4-0.8,0.4-1.2c0-1.8-1.2-2.6-3.7-2.6c-1,0-1.8,0.2-2.4,0.6s-1,1-1,1.7
			c0,0.4,0.1,0.7,0.3,1.1C443.8,395.2,444.1,395.6,444.6,395.9z"/>
		<path class="st10" d="M446.8,412.3c-1.2,0-2.2-0.4-2.9-1.2c-0.8-0.8-1.2-1.8-1.2-3s0.4-2.2,1.2-3c0.8-0.8,1.8-1.2,2.9-1.2
			c1.2,0,2.2,0.4,3,1.2c0.8,0.8,1.2,1.8,1.2,3c0,1.2-0.4,2.2-1.2,3S448,412.3,446.8,412.3z M446.8,410.5c1.1,0,2-0.2,2.6-0.6
			c0.7-0.4,1-1,1-1.7c0-0.7-0.3-1.3-1-1.7s-1.5-0.6-2.6-0.6c-1.1,0-1.9,0.2-2.6,0.6c-0.6,0.4-1,1-1,1.7s0.3,1.3,0.9,1.7
			S445.7,410.5,446.8,410.5z"/>
		<path class="st10" d="M450.2,419.2c-0.3,0-0.5-0.1-0.5-0.2l0.1-2.7h-4.3c-1.1,0-1.7,0.4-1.7,1.2c0,0.5,0.1,1,0.4,1.4
			c0,0,0,0.1-0.1,0.1c-0.1,0-0.1,0.1-0.2,0.1c-0.1,0-0.4-0.2-0.6-0.7s-0.4-0.9-0.4-1.5c0-0.7,0.2-1.2,0.6-1.6s1-0.6,1.7-0.6h0.1
			l4.4,0c0.2,0,0.3-0.1,0.3-0.2v-0.7c0-0.1,0.1-0.2,0.2-0.2c0.1,0,0.2,0.1,0.3,0.2c0.5,0.8,1.2,1.6,2.1,2.2c0.1,0.1,0.1,0.1,0.1,0.3
			c0,0.2,0,0.3-0.1,0.3l-1.7-0.1v2.6C450.6,419.1,450.5,419.2,450.2,419.2z"/>
		<path class="st10" d="M443.2,429.5c-0.2,0-0.3,0-0.3-0.1c0-0.2,0-0.5,0.1-0.9c0-0.4,0.1-0.7,0.1-1c0-0.3,0-0.6-0.1-1
			c0-0.4-0.1-0.7-0.1-0.9c0-0.1,0.1-0.1,0.3-0.1c0.2,0,0.2,0,0.2,0.1c0,0.4,0.2,0.7,0.4,0.8c0.2,0.1,0.6,0.2,1.2,0.2h3
			c1.3,0,1.9-0.6,1.9-1.8c0-0.7-0.3-1.4-0.9-1.9h-4c-0.5,0-0.9,0.1-1.1,0.2s-0.3,0.5-0.4,0.9c0,0.1-0.1,0.1-0.2,0.1
			c-0.2,0-0.3,0-0.3-0.1c0-0.2,0-0.6,0.1-1c0-0.4,0.1-0.8,0.1-1.1c0-0.3,0-0.6-0.1-1c0-0.3-0.1-0.6-0.1-0.9c0-0.1,0.1-0.1,0.3-0.1
			c0.2,0,0.2,0,0.2,0.1c0.1,0.5,0.2,0.8,0.4,1c0.2,0.1,0.6,0.2,1.2,0.2h8.4c0.5,0,0.8-0.1,1-0.2c0.2-0.1,0.2-0.4,0.3-0.8
			c0-0.1,0.1-0.1,0.2-0.1c0.2,0,0.2,0,0.2,0.1c0.2,1,0.6,1.8,1,2.3c0.1,0.1,0.1,0.2,0.1,0.2c0,0.2,0,0.3-0.1,0.3
			c-1-0.1-2-0.1-3.1-0.1h-3.1c0.8,0.9,1.2,1.7,1.2,2.5c0,0.9-0.2,1.5-0.7,2c-0.5,0.5-1.1,0.7-1.9,0.7H445c-0.6,0-1,0.1-1.2,0.2
			c-0.2,0.2-0.3,0.5-0.4,1C443.5,429.4,443.4,429.5,443.2,429.5z"/>
		<path class="st10" d="M448.1,437.3c-0.2,0-0.3-0.1-0.3-0.3v-4.9c-0.3,0-0.7-0.1-1-0.1c-1,0-1.7,0.2-2.2,0.7
			c-0.5,0.5-0.8,1.1-0.8,2c0,0.4,0.1,0.9,0.3,1.3c0.2,0.4,0.5,0.8,0.9,1l0,0c0,0.1,0,0.1-0.1,0.2c-0.1,0.1-0.1,0.1-0.2,0.1
			c-0.1,0-0.4-0.2-0.8-0.6c-0.4-0.4-0.7-0.8-0.9-1.3s-0.3-0.9-0.3-1.4c0-1.1,0.4-2,1.2-2.7c0.8-0.7,1.8-1.1,2.9-1.1
			c1.2,0,2.2,0.4,3,1.1c0.8,0.7,1.2,1.6,1.2,2.7c0,0.9-0.3,1.7-0.9,2.3S448.8,437.3,448.1,437.3z M448.9,435.7
			c0.5,0,0.8-0.2,1.1-0.5c0.3-0.3,0.4-0.7,0.4-1.2c0-0.5-0.2-0.9-0.6-1.2c-0.4-0.3-0.9-0.6-1.5-0.7l0.1,2.5c0,0.4,0,0.6,0.1,0.8
			C448.6,435.6,448.7,435.7,448.9,435.7z"/>
		<path class="st10" d="M450.1,444.7c-0.2,0-0.4-0.1-0.6-0.2c-0.2-0.1-0.3-0.3-0.3-0.5c0-0.3,0.1-0.5,0.3-0.8
			c0.1-0.2,0.2-0.4,0.2-0.5c0-0.4-0.2-0.8-0.7-1.2h-4c-0.5,0-0.9,0.1-1.1,0.3c-0.2,0.2-0.3,0.6-0.4,1.2c0,0.1-0.1,0.1-0.2,0.1
			c-0.2,0-0.3,0-0.3-0.1c0-0.2,0-0.6,0.1-1c0-0.5,0.1-0.9,0.1-1.2c0-0.3,0-0.7-0.1-1.1c0-0.4-0.1-0.7-0.1-0.9c0-0.1,0.1-0.1,0.3-0.1
			c0.2,0,0.2,0,0.2,0.1c0.1,0.5,0.2,0.9,0.4,1c0.2,0.1,0.6,0.2,1.1,0.2h3.3c0.5,0,0.8-0.1,0.9-0.2c0.1-0.1,0.2-0.4,0.3-0.8
			c0-0.1,0.1-0.1,0.2-0.1c0.1,0,0.2,0,0.2,0.1c0.2,0.6,0.3,1.1,0.5,1.5c0.2,0.4,0.3,0.6,0.5,0.8c0.1,0.1,0.1,0.1,0.1,0.2
			c0,0.2,0,0.3-0.1,0.3l-1.1-0.1c0.4,0.5,0.8,0.9,0.9,1.2c0.2,0.3,0.3,0.7,0.3,1c0,0.3-0.1,0.5-0.3,0.7
			C450.6,444.6,450.4,444.7,450.1,444.7z"/>
		<path class="st10" d="M445.3,455.5c-0.7,0-1.3-0.3-1.8-0.9s-0.7-1.3-0.7-2.1c0-0.3,0.1-0.7,0.2-1.3c0.1-0.5,0.1-0.8,0.1-0.9
			c0.4,0,1.1-0.2,1.9-0.3c0.1,0,0.1,0.1,0.1,0.3c0,0.1,0,0.2-0.1,0.3c-0.4,0.1-0.8,0.4-1.2,0.8c-0.3,0.4-0.5,0.8-0.5,1.3
			c0,0.5,0.1,0.8,0.4,1c0.2,0.2,0.6,0.4,1,0.4c0.3,0,0.5-0.1,0.7-0.3c0.2-0.2,0.5-0.7,0.8-1.3c0.4-0.9,0.8-1.5,1.2-1.8
			c0.4-0.3,0.8-0.4,1.3-0.4c0.6,0,1.2,0.3,1.6,0.8s0.7,1.2,0.7,1.9c0,0.3-0.1,0.8-0.2,1.3c-0.1,0.3-0.1,0.5-0.1,0.6
			c-0.7,0-1.3,0.1-1.8,0.1c-0.1,0-0.1-0.1-0.1-0.3c0-0.2,0-0.2,0.1-0.3c0.4-0.1,0.8-0.2,1.1-0.5c0.3-0.3,0.4-0.6,0.4-0.9
			c0-0.9-0.4-1.4-1.2-1.4c-0.3,0-0.5,0.1-0.8,0.3s-0.5,0.7-0.9,1.4c-0.4,0.9-0.8,1.5-1.2,1.7C446.1,455.3,445.7,455.5,445.3,455.5z"
			/>
		<path class="st10" d="M450.2,462.3c-0.3,0-0.5-0.1-0.5-0.2l0.1-2.7h-4.3c-1.1,0-1.7,0.4-1.7,1.2c0,0.5,0.1,1,0.4,1.4
			c0,0,0,0.1-0.1,0.1c-0.1,0-0.1,0.1-0.2,0.1c-0.1,0-0.4-0.2-0.6-0.7s-0.4-0.9-0.4-1.5c0-0.7,0.2-1.2,0.6-1.6s1-0.6,1.7-0.6h0.1
			l4.4,0c0.2,0,0.3-0.1,0.3-0.2v-0.7c0-0.1,0.1-0.2,0.2-0.2c0.1,0,0.2,0.1,0.3,0.2c0.5,0.8,1.2,1.6,2.1,2.2c0.1,0.1,0.1,0.1,0.1,0.3
			c0,0.2,0,0.3-0.1,0.3l-1.7-0.1v2.6C450.6,462.2,450.5,462.3,450.2,462.3z"/>
		<path class="st10" d="M446.8,471.4c-1.2,0-2.2-0.4-2.9-1.2c-0.8-0.8-1.2-1.8-1.2-3s0.4-2.2,1.2-3c0.8-0.8,1.8-1.2,2.9-1.2
			c1.2,0,2.2,0.4,3,1.2c0.8,0.8,1.2,1.8,1.2,3c0,1.2-0.4,2.2-1.2,3S448,471.4,446.8,471.4z M446.8,469.6c1.1,0,2-0.2,2.6-0.6
			c0.7-0.4,1-1,1-1.7c0-0.7-0.3-1.3-1-1.7s-1.5-0.6-2.6-0.6c-1.1,0-1.9,0.2-2.6,0.6c-0.6,0.4-1,1-1,1.7s0.3,1.3,0.9,1.7
			S445.7,469.6,446.8,469.6z"/>
		<path class="st10" d="M450.1,478.8c-0.2,0-0.4-0.1-0.6-0.2c-0.2-0.1-0.3-0.3-0.3-0.5c0-0.3,0.1-0.5,0.3-0.8
			c0.1-0.2,0.2-0.4,0.2-0.5c0-0.4-0.2-0.8-0.7-1.2h-4c-0.5,0-0.9,0.1-1.1,0.3c-0.2,0.2-0.3,0.6-0.4,1.2c0,0.1-0.1,0.1-0.2,0.1
			c-0.2,0-0.3,0-0.3-0.1c0-0.2,0-0.6,0.1-1c0-0.5,0.1-0.9,0.1-1.2c0-0.3,0-0.7-0.1-1.1c0-0.4-0.1-0.7-0.1-0.9c0-0.1,0.1-0.1,0.3-0.1
			c0.2,0,0.2,0,0.2,0.1c0.1,0.5,0.2,0.9,0.4,1c0.2,0.1,0.6,0.2,1.1,0.2h3.3c0.5,0,0.8-0.1,0.9-0.2c0.1-0.1,0.2-0.4,0.3-0.8
			c0-0.1,0.1-0.1,0.2-0.1c0.1,0,0.2,0,0.2,0.1c0.2,0.6,0.3,1.1,0.5,1.5c0.2,0.4,0.3,0.6,0.5,0.8c0.1,0.1,0.1,0.1,0.1,0.2
			c0,0.2,0,0.3-0.1,0.3l-1.1-0.1c0.4,0.5,0.8,0.9,0.9,1.2c0.2,0.3,0.3,0.7,0.3,1c0,0.3-0.1,0.5-0.3,0.7
			C450.6,478.7,450.4,478.8,450.1,478.8z"/>
		<path class="st10" d="M443.2,483.6c-0.2,0-0.3,0-0.3-0.1c0-0.2,0-0.6,0.1-0.9c0-0.4,0.1-0.8,0.1-1.1c0-0.3,0-0.7-0.1-1.1
			c0-0.4-0.1-0.7-0.1-0.9c0-0.1,0.1-0.1,0.3-0.1c0.2,0,0.2,0,0.2,0.1c0.1,0.5,0.2,0.8,0.4,1c0.2,0.1,0.6,0.2,1.1,0.2h3.3
			c0.5,0,0.8-0.1,0.9-0.2c0.1-0.1,0.2-0.4,0.3-0.8c0-0.1,0.1-0.1,0.2-0.1c0.1,0,0.2,0,0.2,0.1c0.2,0.6,0.3,1.1,0.5,1.5
			c0.2,0.4,0.3,0.7,0.5,0.8c0.1,0.1,0.1,0.1,0.1,0.2c0,0.2,0,0.3-0.1,0.3c-1.3-0.1-2.4-0.1-3.1-0.1H445c-0.6,0-1,0.1-1.2,0.2
			c-0.2,0.1-0.3,0.5-0.4,1C443.5,483.5,443.4,483.6,443.2,483.6z M454.1,482.3c-0.3,0-0.5-0.1-0.7-0.3c-0.2-0.2-0.3-0.4-0.3-0.7
			s0.1-0.5,0.3-0.7c0.2-0.2,0.4-0.3,0.7-0.3c0.3,0,0.5,0.1,0.7,0.3c0.2,0.2,0.3,0.4,0.3,0.7c0,0.3-0.1,0.5-0.3,0.7
			C454.6,482.2,454.4,482.3,454.1,482.3z"/>
		<path class="st10" d="M448.1,491.6c-0.2,0-0.3-0.1-0.3-0.3v-4.9c-0.3,0-0.7-0.1-1-0.1c-1,0-1.7,0.2-2.2,0.7
			c-0.5,0.5-0.8,1.1-0.8,2c0,0.4,0.1,0.9,0.3,1.3c0.2,0.4,0.5,0.8,0.9,1l0,0c0,0.1,0,0.1-0.1,0.2c-0.1,0.1-0.1,0.1-0.2,0.1
			c-0.1,0-0.4-0.2-0.8-0.6c-0.4-0.4-0.7-0.8-0.9-1.3s-0.3-0.9-0.3-1.4c0-1.1,0.4-2,1.2-2.7c0.8-0.7,1.8-1.1,2.9-1.1
			c1.2,0,2.2,0.4,3,1.1c0.8,0.7,1.2,1.6,1.2,2.7c0,0.9-0.3,1.7-0.9,2.3S448.8,491.6,448.1,491.6z M448.9,489.9
			c0.5,0,0.8-0.2,1.1-0.5c0.3-0.3,0.4-0.7,0.4-1.2c0-0.5-0.2-0.9-0.6-1.2c-0.4-0.3-0.9-0.6-1.5-0.7l0.1,2.5c0,0.4,0,0.6,0.1,0.8
			C448.6,489.8,448.7,489.9,448.9,489.9z"/>
		<path class="st10" d="M445.3,498.5c-0.7,0-1.3-0.3-1.8-0.9s-0.7-1.3-0.7-2.1c0-0.3,0.1-0.7,0.2-1.3c0.1-0.5,0.1-0.8,0.1-0.9
			c0.4,0,1.1-0.2,1.9-0.3c0.1,0,0.1,0.1,0.1,0.3c0,0.1,0,0.2-0.1,0.3c-0.4,0.1-0.8,0.4-1.2,0.8c-0.3,0.4-0.5,0.8-0.5,1.3
			c0,0.5,0.1,0.8,0.4,1c0.2,0.2,0.6,0.4,1,0.4c0.3,0,0.5-0.1,0.7-0.3c0.2-0.2,0.5-0.7,0.8-1.3c0.4-0.9,0.8-1.5,1.2-1.8
			c0.4-0.3,0.8-0.4,1.3-0.4c0.6,0,1.2,0.3,1.6,0.8s0.7,1.2,0.7,1.9c0,0.3-0.1,0.8-0.2,1.3c-0.1,0.3-0.1,0.5-0.1,0.6
			c-0.7,0-1.3,0.1-1.8,0.1c-0.1,0-0.1-0.1-0.1-0.3c0-0.2,0-0.2,0.1-0.3c0.4-0.1,0.8-0.2,1.1-0.5c0.3-0.3,0.4-0.6,0.4-0.9
			c0-0.9-0.4-1.4-1.2-1.4c-0.3,0-0.5,0.1-0.8,0.3s-0.5,0.7-0.9,1.4c-0.4,0.9-0.8,1.5-1.2,1.7C446.1,498.4,445.7,498.5,445.3,498.5z"
			/>
		<path class="st10" d="M446.9,512.8c-1.1,0-2.1-0.4-2.9-1.2c-0.8-0.8-1.3-1.7-1.3-2.7c0-0.6,0.1-1.1,0.4-1.7c0.2-0.4,0.3-0.7,0.3-1
			c0-0.5-0.2-0.7-0.6-0.9c-0.1,0-0.1-0.1-0.1-0.2c0-0.2,0-0.2,0.1-0.2c0.5,0,1.1,0.1,1.8,0.1h8.8c0.5,0,0.8-0.1,1-0.2
			c0.1-0.1,0.2-0.4,0.3-0.8c0-0.1,0.1-0.1,0.2-0.1c0.2,0,0.3,0,0.3,0.1c0.3,1.1,0.6,1.8,1,2.3c0.1,0.1,0.1,0.2,0.1,0.2
			c0,0.2,0,0.3-0.1,0.3c-1.3-0.1-2.4-0.1-3.2-0.1h-2.7c0.6,0.6,0.8,1.3,0.8,2.1c0,1.2-0.4,2.2-1.1,3
			C449.2,512.4,448.2,512.8,446.9,512.8z M446.8,510.9c1.1,0,2-0.2,2.6-0.7c0.6-0.4,0.9-1.1,0.9-1.8c0-0.4-0.2-0.8-0.5-1.2
			c-0.3-0.4-0.6-0.6-1-0.6h-4.2c-0.3,0-0.6,0.2-1,0.7c-0.3,0.5-0.5,0.9-0.5,1.3c0,0.7,0.3,1.3,1,1.7
			C444.9,510.7,445.8,510.9,446.8,510.9z"/>
		<path class="st10" d="M450.5,522.3c-0.2,0-0.2,0-0.2-0.1c0-0.4-0.2-0.7-0.4-0.9c-0.2-0.2-0.6-0.5-1.2-0.7l-9.2-4.2
			c-1-0.5-1.5-1-1.5-1.7c0-0.3,0.1-0.6,0.2-0.7c0.2-0.2,0.4-0.3,0.6-0.3c0.3,0,0.5,0.1,0.7,0.2s0.3,0.4,0.3,0.7c0,0.1,0,0.3-0.1,0.4
			c-0.1,0.1-0.1,0.2-0.1,0.2c0,0.2,0.3,0.4,1,0.7l2.4,1.1l5.6-2.1c0.5-0.2,0.9-0.4,1.1-0.7c0.2-0.2,0.3-0.5,0.4-0.9
			c0-0.1,0.1-0.1,0.2-0.1c0.2,0,0.2,0,0.2,0.1c0,0.2,0,0.5-0.1,0.9c0,0.4-0.1,0.7-0.1,1c0,0.3,0,0.6,0.1,1c0,0.4,0.1,0.7,0.1,0.9
			c0,0.1-0.1,0.1-0.2,0.1c-0.2,0-0.2,0-0.2-0.1c-0.1-0.6-0.3-0.9-0.5-0.9c-0.2,0-0.5,0.1-1,0.2l-3.7,1.5l3.7,1.7
			c0.3,0.1,0.6,0.2,0.8,0.2c0.4,0,0.6-0.3,0.7-0.9c0-0.1,0.1-0.1,0.2-0.1c0.2,0,0.3,0,0.3,0.1c0,0.3,0,0.5-0.1,0.8
			c0,0.3-0.1,0.6-0.1,0.8c0,0.1,0,0.3,0,0.6c0,0.4,0.1,0.7,0.1,0.9C450.8,522.2,450.7,522.3,450.5,522.3z"/>
		<path class="st10" d="M443.2,539.3c-0.2,0-0.3,0-0.3-0.1c0-0.2,0-0.6,0.1-1.1c0-0.4,0-0.6,0-0.7c0-0.2,0-0.4-0.1-0.8
			s-0.1-0.6-0.1-0.8l4.4-2.7c0.6-0.4,1-0.7,1.2-0.9s0.3-0.7,0.3-1.4H445c-0.4,0-0.7,0.1-0.9,0.2c-0.2,0.1-0.3,0.3-0.4,0.6
			c-0.1,0.3-0.2,0.6-0.2,1.1c0,0.1-0.1,0.2-0.2,0.2c-0.2,0-0.3,0-0.3-0.1c0-0.4,0-0.9,0.1-1.4c0-0.5,0.1-1,0.1-1.3
			c0-0.4,0-0.8-0.1-1.3c0-0.6-0.1-1-0.1-1.4c0-0.1,0.1-0.1,0.3-0.1c0.2,0,0.2,0,0.2,0.1c0.1,0.5,0.1,0.9,0.2,1.1
			c0.1,0.3,0.2,0.4,0.4,0.6c0.2,0.1,0.5,0.2,0.9,0.2h8.5c0.4,0,0.7,0,0.9-0.1c0.2-0.1,0.3-0.3,0.4-0.5c0.1-0.3,0.2-0.7,0.2-1.2
			c0-0.1,0.1-0.1,0.2-0.1s0.2,0,0.2,0.1c0,0.4,0,0.9-0.1,1.4c0,0.5-0.1,1-0.1,1.3c0,0.4,0,0.8,0.1,1.3c0,0.6,0.1,1,0.1,1.4
			c0,1.3-0.3,2.4-0.8,3.1c-0.6,0.7-1.3,1.1-2.4,1.1c-0.6,0-1.2-0.2-1.8-0.7c-0.5-0.5-1-1.1-1.3-2l-4.5,2.8c-0.4,0.2-0.7,0.5-0.9,0.9
			c-0.2,0.4-0.3,0.9-0.4,1.5C443.5,539.2,443.4,539.3,443.2,539.3z M452.3,534.7c1.8,0,2.6-0.8,2.6-2.3c0-0.5,0-0.9-0.1-1.1
			c-0.1-0.3-0.2-0.4-0.4-0.5c-0.2-0.1-0.5-0.1-0.9-0.1h-4c0,0.3-0.1,0.8-0.1,1.3c0,1,0.2,1.7,0.7,2.1
			C450.5,534.4,451.3,534.7,452.3,534.7z"/>
		<path class="st10" d="M442.8,545.5c0-0.3,0.1-0.6,0.2-0.9c0.2-0.2,0.4-0.4,0.7-0.5c-0.7-0.6-1-1.5-1-2.5c0-0.5,0.2-1,0.5-1.3
			s0.7-0.5,1.2-0.5c1.2,0,2.2,1.5,3,4.4l1.4,0.1h0c0.4,0,0.8-0.1,1-0.3c0.3-0.2,0.4-0.5,0.4-0.9c0-0.4-0.1-0.7-0.3-0.9
			c-0.2-0.2-0.4-0.4-0.6-0.4c-0.4,0-0.7-0.1-0.9-0.3s-0.3-0.5-0.3-0.8c0-0.2,0.1-0.3,0.2-0.5c0.1-0.1,0.3-0.2,0.5-0.2
			c0.5,0,0.9,0.4,1.5,1.3c0.5,0.8,0.8,1.6,0.8,2.3c0,0.6-0.2,1.2-0.6,1.6c-0.4,0.4-0.9,0.6-1.5,0.6h-0.1l-4.1-0.1h-0.1
			c-0.6,0-0.9,0.2-0.9,0.6c0,0.2,0.1,0.4,0.4,0.7l0,0.1c0,0,0,0.1-0.1,0.1c-0.1,0-0.1,0.1-0.2,0.1c-0.2,0-0.4-0.2-0.6-0.5
			S442.8,545.9,442.8,545.5z M446.9,544.1c-0.4-1.7-1.1-2.6-2-2.6c-0.9,0-1.3,0.3-1.3,1c0,0.3,0.1,0.6,0.2,0.9s0.4,0.5,0.6,0.6
			L446.9,544.1z"/>
		<path class="st10" d="M450.5,555.9c-0.2,0-0.2,0-0.2-0.1c0-0.4-0.2-0.7-0.4-0.9c-0.2-0.2-0.6-0.5-1.2-0.7l-9.2-4.2
			c-1-0.5-1.5-1-1.5-1.7c0-0.3,0.1-0.6,0.2-0.7c0.2-0.2,0.4-0.3,0.6-0.3c0.3,0,0.5,0.1,0.7,0.2s0.3,0.4,0.3,0.7c0,0.1,0,0.3-0.1,0.4
			c-0.1,0.1-0.1,0.2-0.1,0.2c0,0.2,0.3,0.4,1,0.7l2.4,1.1l5.6-2.1c0.5-0.2,0.9-0.4,1.1-0.7c0.2-0.2,0.3-0.5,0.4-0.9
			c0-0.1,0.1-0.1,0.2-0.1c0.2,0,0.2,0,0.2,0.1c0,0.2,0,0.5-0.1,0.9c0,0.4-0.1,0.7-0.1,1c0,0.3,0,0.6,0.1,1c0,0.4,0.1,0.7,0.1,0.9
			c0,0.1-0.1,0.1-0.2,0.1c-0.2,0-0.2,0-0.2-0.1c-0.1-0.6-0.3-0.9-0.5-0.9c-0.2,0-0.5,0.1-1,0.2l-3.7,1.5l3.7,1.7
			c0.3,0.1,0.6,0.2,0.8,0.2c0.4,0,0.6-0.3,0.7-0.9c0-0.1,0.1-0.1,0.2-0.1c0.2,0,0.3,0,0.3,0.1c0,0.3,0,0.5-0.1,0.8
			c0,0.3-0.1,0.6-0.1,0.8c0,0.1,0,0.3,0,0.6c0,0.4,0.1,0.7,0.1,0.9C450.8,555.8,450.7,555.9,450.5,555.9z"/>
		<path class="st10" d="M446.7,570.9c-1.1,0-2-0.4-2.7-1.1s-1-1.7-1-3c0-0.4,0-1,0.1-1.7c0-0.7,0.1-1.2,0.1-1.6c0-0.4,0-0.9-0.1-1.5
			c0-0.6-0.1-1.2-0.1-1.6c0-0.1,0.1-0.1,0.3-0.1c0.2,0,0.2,0,0.2,0.1c0.1,0.7,0.2,1.2,0.4,1.5c0.2,0.3,0.6,0.4,1.1,0.4h8.5
			c0.4,0,0.7-0.1,0.9-0.2c0.2-0.1,0.3-0.3,0.4-0.6c0.1-0.3,0.2-0.7,0.2-1.2c0-0.1,0.1-0.1,0.2-0.1s0.2,0,0.2,0.1
			c0,0.4,0,0.9-0.1,1.5c0,0.6-0.1,1-0.1,1.4s0,0.8,0.1,1.4c0,0.6,0.1,1.1,0.1,1.5c0,1.1-0.3,2-0.8,2.7c-0.5,0.7-1.2,1-2.1,1
			c-0.6,0-1.2-0.3-1.7-0.8c-0.5-0.5-0.9-1.1-1-1.9c-0.2,1.1-0.6,1.9-1.2,2.5C448.1,570.6,447.4,570.9,446.7,570.9z M452.6,568.1
			c0.8,0,1.4-0.2,1.7-0.6c0.4-0.4,0.6-1,0.6-1.8v-0.4c0-0.8-0.3-1.1-1-1.1H450v1.3c0,0.9,0.2,1.6,0.6,2
			C451,567.9,451.7,568.1,452.6,568.1z M446.7,568.9c0.9,0,1.5-0.2,2-0.7c0.5-0.5,0.7-1.2,0.7-2v-2H445c-0.5,0-0.9,0.2-1.1,0.5
			c-0.2,0.3-0.3,0.8-0.3,1.6c0,0.8,0.3,1.4,0.9,1.9C445,568.7,445.7,568.9,446.7,568.9z"/>
		<path class="st10" d="M450.1,578.2c-0.2,0-0.4-0.1-0.6-0.2c-0.2-0.1-0.3-0.3-0.3-0.5c0-0.3,0.1-0.5,0.3-0.8
			c0.1-0.2,0.2-0.4,0.2-0.5c0-0.4-0.2-0.8-0.7-1.2h-4c-0.5,0-0.9,0.1-1.1,0.3c-0.2,0.2-0.3,0.6-0.4,1.2c0,0.1-0.1,0.1-0.2,0.1
			c-0.2,0-0.3,0-0.3-0.1c0-0.2,0-0.6,0.1-1c0-0.5,0.1-0.9,0.1-1.2c0-0.3,0-0.7-0.1-1.1c0-0.4-0.1-0.7-0.1-0.9c0-0.1,0.1-0.1,0.3-0.1
			c0.2,0,0.2,0,0.2,0.1c0.1,0.5,0.2,0.9,0.4,1c0.2,0.1,0.6,0.2,1.1,0.2h3.3c0.5,0,0.8-0.1,0.9-0.2c0.1-0.1,0.2-0.4,0.3-0.8
			c0-0.1,0.1-0.1,0.2-0.1c0.1,0,0.2,0,0.2,0.1c0.2,0.6,0.3,1.1,0.5,1.5c0.2,0.4,0.3,0.6,0.5,0.8c0.1,0.1,0.1,0.1,0.1,0.2
			c0,0.2,0,0.3-0.1,0.3l-1.1-0.1c0.4,0.5,0.8,0.9,0.9,1.2c0.2,0.3,0.3,0.7,0.3,1c0,0.3-0.1,0.5-0.3,0.7
			C450.6,578.1,450.4,578.2,450.1,578.2z"/>
		<path class="st10" d="M442.8,584.6c0-0.3,0.1-0.6,0.2-0.9c0.2-0.2,0.4-0.4,0.7-0.5c-0.7-0.6-1-1.5-1-2.5c0-0.5,0.2-1,0.5-1.3
			s0.7-0.5,1.2-0.5c1.2,0,2.2,1.5,3,4.4l1.4,0.1h0c0.4,0,0.8-0.1,1-0.3c0.3-0.2,0.4-0.5,0.4-0.9c0-0.4-0.1-0.7-0.3-0.9
			c-0.2-0.2-0.4-0.4-0.6-0.4c-0.4,0-0.7-0.1-0.9-0.3s-0.3-0.5-0.3-0.8c0-0.2,0.1-0.3,0.2-0.5c0.1-0.1,0.3-0.2,0.5-0.2
			c0.5,0,0.9,0.4,1.5,1.3c0.5,0.8,0.8,1.6,0.8,2.3c0,0.6-0.2,1.2-0.6,1.6c-0.4,0.4-0.9,0.6-1.5,0.6h-0.1l-4.1-0.1h-0.1
			c-0.6,0-0.9,0.2-0.9,0.6c0,0.2,0.1,0.4,0.4,0.7l0,0.1c0,0,0,0.1-0.1,0.1c-0.1,0-0.1,0.1-0.2,0.1c-0.2,0-0.4-0.2-0.6-0.5
			S442.8,585,442.8,584.6z M446.9,583.2c-0.4-1.7-1.1-2.6-2-2.6c-0.9,0-1.3,0.3-1.3,1c0,0.3,0.1,0.6,0.2,0.9s0.4,0.5,0.6,0.6
			L446.9,583.2z"/>
		<path class="st10" d="M443.6,595.9c-0.1,0-0.2,0-0.2-0.1c0-0.3-0.1-0.7-0.3-1.2c-0.1-0.5-0.3-0.8-0.4-1.1
			c-0.1-0.1-0.1-0.2-0.1-0.3c0-0.1,0-0.1,0.1-0.1l1,0.1c-0.7-0.6-1-1.4-1-2.4c0-1,0.4-1.9,1.2-2.7c0.8-0.7,1.8-1.1,2.9-1.1
			c1.3,0,2.3,0.4,3.1,1.2c0.8,0.8,1.2,1.8,1.2,3c0,0.7-0.2,1.3-0.6,1.9h3c0.5,0,0.8-0.1,1-0.2s0.2-0.4,0.3-0.8
			c0-0.1,0.1-0.1,0.2-0.1c0.2,0,0.2,0,0.2,0.1c0.1,0.6,0.3,1.1,0.5,1.5c0.2,0.4,0.4,0.7,0.5,0.8c0.1,0.1,0.1,0.1,0.1,0.2
			c0,0.2,0,0.3-0.1,0.3c-1.3-0.1-2.4-0.1-3.1-0.1H445c-0.4,0-0.7,0.1-0.8,0.2s-0.2,0.4-0.3,0.8C443.8,595.8,443.8,595.9,443.6,595.9
			z M444.6,593.1h4.6c0.3,0,0.6-0.2,0.9-0.5c0.3-0.4,0.4-0.8,0.4-1.2c0-1.8-1.2-2.6-3.7-2.6c-1,0-1.8,0.2-2.4,0.6s-1,1-1,1.7
			c0,0.4,0.1,0.7,0.3,1.1C443.8,592.4,444.1,592.8,444.6,593.1z"/>
		<path class="st10" d="M446.9,605.1c-1.1,0-2.1-0.4-2.9-1.2c-0.8-0.8-1.3-1.7-1.3-2.7c0-0.6,0.1-1.1,0.4-1.7c0.2-0.4,0.3-0.7,0.3-1
			c0-0.5-0.2-0.7-0.6-0.9c-0.1,0-0.1-0.1-0.1-0.2c0-0.2,0-0.2,0.1-0.2c0.5,0,1.1,0.1,1.8,0.1h8.8c0.5,0,0.8-0.1,1-0.2
			c0.1-0.1,0.2-0.4,0.3-0.8c0-0.1,0.1-0.1,0.2-0.1c0.2,0,0.3,0,0.3,0.1c0.3,1.1,0.6,1.8,1,2.3c0.1,0.1,0.1,0.2,0.1,0.2
			c0,0.2,0,0.3-0.1,0.3c-1.3-0.1-2.4-0.1-3.2-0.1h-2.7c0.6,0.6,0.8,1.3,0.8,2.1c0,1.2-0.4,2.2-1.1,3
			C449.2,604.8,448.2,605.1,446.9,605.1z M446.8,603.3c1.1,0,2-0.2,2.6-0.7c0.6-0.4,0.9-1.1,0.9-1.8c0-0.4-0.2-0.8-0.5-1.2
			c-0.3-0.4-0.6-0.6-1-0.6h-4.2c-0.3,0-0.6,0.2-1,0.7c-0.3,0.5-0.5,0.9-0.5,1.3c0,0.7,0.3,1.3,1,1.7
			C444.9,603.1,445.8,603.3,446.8,603.3z"/>
		<path class="st10" d="M443.6,615.1c-0.1,0-0.2,0-0.2-0.1c-0.1-1.1-0.3-1.8-0.6-2.2c-0.1-0.1-0.1-0.2-0.1-0.3c0-0.1,0-0.2,0.1-0.2
			l1.1,0.1c-0.8-0.9-1.2-1.7-1.2-2.4c0-0.8,0.2-1.5,0.7-1.9s1.1-0.7,1.9-0.7h3.4c0.5,0,0.9-0.1,1.1-0.2c0.2-0.1,0.3-0.4,0.3-0.8
			c0-0.1,0-0.2,0-0.3c0-0.1,0.1-0.1,0.2-0.1c0.2,0,0.3,0,0.3,0.1c0,0.7,0.1,1.6,0.4,2.7c0,0.1-0.1,0.2-0.2,0.2h-4.9
			c-0.7,0-1.2,0.1-1.5,0.4c-0.3,0.3-0.5,0.7-0.5,1.2c0,0.4,0.1,0.7,0.2,0.9s0.4,0.6,0.7,0.9h4c0.5,0,0.9-0.1,1.1-0.2
			c0.2-0.1,0.3-0.4,0.3-0.8c0-0.1,0-0.2,0-0.3c0-0.1,0.1-0.1,0.2-0.1c0.2,0,0.3,0,0.3,0.1c0,0.7,0.1,1.6,0.4,2.7
			c0,0.1-0.1,0.2-0.2,0.2H445c-0.4,0-0.7,0.1-0.8,0.2c-0.1,0.1-0.2,0.4-0.3,0.8C443.8,615,443.7,615.1,443.6,615.1z"/>
		<path class="st10" d="M450.1,622c-0.2,0-0.4-0.1-0.6-0.2c-0.2-0.1-0.3-0.3-0.3-0.5c0-0.3,0.1-0.5,0.3-0.8c0.1-0.2,0.2-0.4,0.2-0.5
			c0-0.4-0.2-0.8-0.7-1.2h-4c-0.5,0-0.9,0.1-1.1,0.3c-0.2,0.2-0.3,0.6-0.4,1.2c0,0.1-0.1,0.1-0.2,0.1c-0.2,0-0.3,0-0.3-0.1
			c0-0.2,0-0.6,0.1-1c0-0.5,0.1-0.9,0.1-1.2c0-0.3,0-0.7-0.1-1.1c0-0.4-0.1-0.7-0.1-0.9c0-0.1,0.1-0.1,0.3-0.1c0.2,0,0.2,0,0.2,0.1
			c0.1,0.5,0.2,0.9,0.4,1c0.2,0.1,0.6,0.2,1.1,0.2h3.3c0.5,0,0.8-0.1,0.9-0.2c0.1-0.1,0.2-0.4,0.3-0.8c0-0.1,0.1-0.1,0.2-0.1
			c0.1,0,0.2,0,0.2,0.1c0.2,0.6,0.3,1.1,0.5,1.5c0.2,0.4,0.3,0.6,0.5,0.8c0.1,0.1,0.1,0.1,0.1,0.2c0,0.2,0,0.3-0.1,0.3l-1.1-0.1
			c0.4,0.5,0.8,0.9,0.9,1.2c0.2,0.3,0.3,0.7,0.3,1c0,0.3-0.1,0.5-0.3,0.7C450.6,621.9,450.4,622,450.1,622z"/>
		<path class="st10" d="M450.5,631.5c-0.2,0-0.2,0-0.2-0.1c0-0.4-0.2-0.7-0.4-0.9c-0.2-0.2-0.6-0.5-1.2-0.7l-9.2-4.2
			c-1-0.5-1.5-1-1.5-1.7c0-0.3,0.1-0.6,0.2-0.7c0.2-0.2,0.4-0.3,0.6-0.3c0.3,0,0.5,0.1,0.7,0.2s0.3,0.4,0.3,0.7c0,0.1,0,0.3-0.1,0.4
			c-0.1,0.1-0.1,0.2-0.1,0.2c0,0.2,0.3,0.4,1,0.7l2.4,1.1l5.6-2.1c0.5-0.2,0.9-0.4,1.1-0.7c0.2-0.2,0.3-0.5,0.4-0.9
			c0-0.1,0.1-0.1,0.2-0.1c0.2,0,0.2,0,0.2,0.1c0,0.2,0,0.5-0.1,0.9c0,0.4-0.1,0.7-0.1,1c0,0.3,0,0.6,0.1,1c0,0.4,0.1,0.7,0.1,0.9
			c0,0.1-0.1,0.1-0.2,0.1c-0.2,0-0.2,0-0.2-0.1c-0.1-0.6-0.3-0.9-0.5-0.9c-0.2,0-0.5,0.1-1,0.2L445,627l3.7,1.7
			c0.3,0.1,0.6,0.2,0.8,0.2c0.4,0,0.6-0.3,0.7-0.9c0-0.1,0.1-0.1,0.2-0.1c0.2,0,0.3,0,0.3,0.1c0,0.3,0,0.5-0.1,0.8
			c0,0.3-0.1,0.6-0.1,0.8c0,0.1,0,0.3,0,0.6c0,0.4,0.1,0.7,0.1,0.9C450.8,631.4,450.7,631.5,450.5,631.5z"/>
	</g>
	<rect x="96.4" y="177.1" class="st12" width="272.5" height="46.7"/>
	<text transform="matrix(1 0 0 1 96.4183 190.2036)"><tspan x="0" y="0" class="st10 st13 st14">If a things over, its done, and </tspan><tspan x="0" y="21.6" class="st10 st13 st14">what good is it? You die anyway.</tspan></text>
	<rect x="58.6" y="266.5" class="st12" width="321.8" height="153.5"/>
	<text transform="matrix(1 0 0 1 62.699 279.5426)"><tspan x="0" y="0" class="st10 st13 st14">There were only the great diamonds and </tspan><tspan x="9.2" y="21.6" class="st10 st13 st14">sapphires and emerald mists and velvet </tspan><tspan x="4.2" y="43.2" class="st10 st13 st14">inks of space, with Gods voice mingling </tspan><tspan x="65.1" y="64.8" class="st10 st13 st14">among the crystal fires.</tspan></text>
	<rect x="62.1" y="68.7" class="st12" width="322.5" height="66.8"/>
	<text transform="matrix(1 0 0 1 71.1138 81.7564)"><tspan x="0" y="0" class="st10 st13 st14">Space began to weave its strange voices </tspan><tspan x="-7" y="21.6" class="st10 st13 st14">in and out, on a great dark loom, crossing, </tspan><tspan x="19.8" y="43.2" class="st10 st13 st14">recrossing, making a final pattern.</tspan></text>
	<rect x="86.9" y="393" class="st12" width="274.7" height="70.7"/>
	<text transform="matrix(1 0 0 1 102.3479 406.0918)"><tspan x="0" y="0" class="st10 st13 st14">Now all the voices were fading, </tspan><tspan x="-12.9" y="21.6" class="st10 st13 st14">each on his own trajectory, some to </tspan><tspan x="-4.7" y="43.2" class="st10 st13 st14">Mars, others into farthest space.</tspan></text>
</g>
</svg>
